<?xml version="1.0" encoding="utf-8"?>
<!-- Generator: Adobe Illustrator 24.1.0, SVG Export Plug-In . SVG Version: 6.00 Build 0)  -->
<svg version="1.1" id="Layer_1" xmlns="http://www.w3.org/2000/svg" xmlns:xlink="http://www.w3.org/1999/xlink" x="0px" y="0px"
	 viewBox="0 0 200 200" style="enable-background:new 0 0 200 200;" xml:space="preserve">
<style type="text/css">
	.st0{fill:#333333;}
</style>
<g id="S8lsgv.tif">
	<g>
		<path class="st0" d="M21.7,169.3c0.4-0.5,0.7-1,1.2-1.5c13-13,25.9-25.9,38.9-38.9c2.2-2.2,4.6-3.4,7.6-2.3c4,1.5,5.6,6.1,3.2,9.7
			c-0.5,0.8-1.1,1.5-1.8,2.1c-12.9,12.9-25.8,25.9-38.8,38.8c-0.4,0.4-0.8,0.9-1.5,1.6c1,0,1.6,0,2.2,0c11.2,0,22.4,0,33.6,0
			c2.5,0,4.7,0.6,6.2,2.8c2.7,3.8,0.7,9-3.7,10.1c-0.9,0.2-1.8,0.3-2.8,0.3c-16.9,0-33.8,0-50.7,0c-4.7,0-7.4-2.7-7.4-7.4
			c0-17,0-34.1,0-51.1c0-2.7,0.9-5,3.3-6.4c4.1-2.4,9.2,0.3,9.7,5c0.1,0.8,0.1,1.5,0.1,2.3c0,10.9,0,21.9,0,32.8c0,0.6,0,1.2,0,1.8
			C21.3,169.1,21.5,169.2,21.7,169.3z"/>
		<path class="st0" d="M169,21.2c-0.6,0-1.2,0-1.8,0c-11.2,0-22.4,0-33.6,0c-3.8,0-6.1-1.5-7-4.6c-1.2-3.8,1.2-7.7,5.1-8.3
			c0.7-0.1,1.4-0.2,2.2-0.2c17.1,0,34.3,0,51.4,0c3.8,0,6.8,2.9,6.8,6.8c0,17.1,0,34.3,0,51.4c0,2.2-0.3,4.2-2.1,5.8
			c-2,1.8-4.3,2.3-6.7,1.4c-2.5-0.8-3.9-2.6-4.2-5.2c-0.1-0.8-0.1-1.5-0.1-2.3c0-11,0-22,0-33c0-0.6,0-1.2,0-2.3
			c-0.7,0.7-1.2,1.1-1.6,1.5c-13,13-25.9,25.9-38.9,38.9c-0.8,0.8-1.6,1.5-2.5,2c-2.5,1.4-5.6,0.9-7.7-1.2c-2-2-2.5-5.2-1.1-7.6
			c0.5-0.9,1.3-1.8,2-2.5c12.9-12.9,25.8-25.9,38.8-38.8c0.4-0.4,1-0.7,1.5-1C169.3,21.6,169.1,21.4,169,21.2z"/>
	</g>
</g>
</svg>
