<?xml version="1.0" encoding="utf-8"?>
<!-- Generator: Adobe Illustrator 23.0.2, SVG Export Plug-In . SVG Version: 6.00 Build 0)  -->
<svg version="1.1" id="Layer_1" xmlns="http://www.w3.org/2000/svg" xmlns:xlink="http://www.w3.org/1999/xlink" x="0px" y="0px"
	 viewBox="0 0 1920 1080" style="enable-background:new 0 0 1920 1080;" xml:space="preserve">
<style type="text/css">
	.st0{opacity:0.5;fill:#BBE3F9;}
</style>
<path class="st0" d="M2030-4.1V-5H977H943H-110v0.9h-1V1083h1v1H943H977h1053v-1h1V-4.1H2030z M910.1-3.1H942v32h-31.9V-3.1z
	 M910.1,30.9H942v32h-31.9V30.9z M910.1,64.9H942v32h-31.9V64.9z M910.1,98.8H942v32.1h-31.9V98.8z M910.1,132.9H942v32h-31.9V132.9
	z M910.1,166.8H942v32h-31.9V166.8z M910.1,200.8H942v32h-31.9V200.8z M910.1,234.7H942v32h-31.9V234.7z M910.1,268.7H942v32h-31.9
	V268.7z M910.1,302.7H942v32h-31.9V302.7z M910.1,336.6H942v32h-31.9V336.6z M910.1,370.6H942v32.1h-31.9V370.6z M910.1,404.6H942
	v32h-31.9V404.6z M910.1,438.6H942v32h-31.9V438.6z M910.1,472.6H942v32h-31.9V472.6z M910.1,506.5H942v32h-31.9V506.5z
	 M910.1,540.5H942v32h-31.9V540.5z M910.1,574.4H942v32h-31.9V574.4z M910.1,608.4H942v32h-31.9V608.4z M910.1,642.3H942v32.1h-31.9
	V642.3z M910.1,676.4H942v32h-31.9V676.4z M910.1,710.4H942v32h-31.9V710.4z M910.1,744.3H942v32h-31.9V744.3z M910.1,778.3H942v32
	h-31.9V778.3z M910.1,812.2H942v32h-31.9V812.2z M910.1,846.2H942v32h-31.9V846.2z M910.1,880.2H942v32h-31.9V880.2z M910.1,914.1
	H942v32.1h-31.9V914.1z M910.1,948.2H942v32h-31.9V948.2z M910.1,982.1H942v32h-31.9V982.1z M910.1,1016.1H942v32h-31.9V1016.1z
	 M-77,1082.1h-32v-32h32V1082.1z M-77,1048.1h-32v-32h32V1048.1z M-77,1014.1h-32v-32h32V1014.1z M-77,980.2h-32v-32h32V980.2z
	 M-77,946.2h-32v-32.1h32V946.2z M-77,912.2h-32v-32h32V912.2z M-77,878.2h-32v-32h32V878.2z M-77,844.3h-32v-32h32V844.3z
	 M-77,810.3h-32v-32h32V810.3z M-77,776.3h-32v-32h32V776.3z M-77,742.4h-32v-32h32V742.4z M-77,708.4h-32v-32h32V708.4z M-77,674.5
	h-32v-32.1h32V674.5z M-77,640.4h-32v-32h32V640.4z M-77,606.4h-32v-32h32V606.4z M-77,572.5h-32v-32h32V572.5z M-77,538.5h-32v-32
	h32V538.5z M-77,504.6h-32v-32h32V504.6z M-77,470.6h-32v-32h32V470.6z M-77,436.7h-32v-32h32V436.7z M-77,402.7h-32v-32.1h32V402.7
	z M-77,368.6h-32v-32h32V368.6z M-77,334.7h-32v-32h32V334.7z M-77,300.7h-32v-32h32V300.7z M-77,266.8h-32v-32h32V266.8z
	 M-77,232.8h-32v-32h32V232.8z M-77,198.8h-32v-32h32V198.8z M-77,164.9h-32v-32h32V164.9z M-77,130.9h-32V98.8h32V130.9z M-77,96.9
	h-32v-32h32V96.9z M-77,62.9h-32v-32h32V62.9z M-77,29h-32v-32h32V29z M-43.1,1082.1h-32v-32h32V1082.1z M-43.1,1048.1h-32v-32h32
	V1048.1z M-43.1,1014.1h-32v-32h32V1014.1z M-43.1,980.2h-32v-32h32V980.2z M-43.1,946.2h-32v-32.1h32V946.2z M-43.1,912.2h-32v-32
	h32V912.2z M-43.1,878.2h-32v-32h32V878.2z M-43.1,844.3h-32v-32h32V844.3z M-43.1,810.3h-32v-32h32V810.3z M-43.1,776.3h-32v-32h32
	V776.3z M-43.1,742.4h-32v-32h32V742.4z M-43.1,708.4h-32v-32h32V708.4z M-43.1,674.5h-32v-32.1h32V674.5z M-43.1,640.4h-32v-32h32
	V640.4z M-43.1,606.4h-32v-32h32V606.4z M-43.1,572.5h-32v-32h32V572.5z M-43.1,538.5h-32v-32h32V538.5z M-43.1,504.6h-32v-32h32
	V504.6z M-43.1,470.6h-32v-32h32V470.6z M-43.1,436.7h-32v-32h32V436.7z M-43.1,402.7h-32v-32.1h32V402.7z M-43.1,368.6h-32v-32h32
	V368.6z M-43.1,334.7h-32v-32h32V334.7z M-43.1,300.7h-32v-32h32V300.7z M-43.1,266.8h-32v-32h32V266.8z M-43.1,232.8h-32v-32h32
	V232.8z M-43.1,198.8h-32v-32h32V198.8z M-43.1,164.9h-32v-32h32V164.9z M-43.1,130.9h-32V98.8h32V130.9z M-43.1,96.9h-32v-32h32
	V96.9z M-43.1,62.9h-32v-32h32V62.9z M-43.1,29h-32v-32h32V29z M-9.1,1082.1h-32v-32h32V1082.1z M-9.1,1048.1h-32v-32h32V1048.1z
	 M-9.1,1014.1h-32v-32h32V1014.1z M-9.1,980.2h-32v-32h32V980.2z M-9.1,946.2h-32v-32.1h32V946.2z M-9.1,912.2h-32v-32h32V912.2z
	 M-9.1,878.2h-32v-32h32V878.2z M-9.1,844.3h-32v-32h32V844.3z M-9.1,810.3h-32v-32h32V810.3z M-9.1,776.3h-32v-32h32V776.3z
	 M-9.1,742.4h-32v-32h32V742.4z M-9.1,708.4h-32v-32h32V708.4z M-9.1,674.5h-32v-32.1h32V674.5z M-9.1,640.4h-32v-32h32V640.4z
	 M-9.1,606.4h-32v-32h32V606.4z M-9.1,572.5h-32v-32h32V572.5z M-9.1,538.5h-32v-32h32V538.5z M-9.1,504.6h-32v-32h32V504.6z
	 M-9.1,470.6h-32v-32h32V470.6z M-9.1,436.7h-32v-32h32V436.7z M-9.1,402.7h-32v-32.1h32V402.7z M-9.1,368.6h-32v-32h32V368.6z
	 M-9.1,334.7h-32v-32h32V334.7z M-9.1,300.7h-32v-32h32V300.7z M-9.1,266.8h-32v-32h32V266.8z M-9.1,232.8h-32v-32h32V232.8z
	 M-9.1,198.8h-32v-32h32V198.8z M-9.1,164.9h-32v-32h32V164.9z M-9.1,130.9h-32V98.8h32V130.9z M-9.1,96.9h-32v-32h32V96.9z
	 M-9.1,62.9h-32v-32h32V62.9z M-9.1,29h-32v-32h32V29z M24.9,1082.1H-7.2v-32h32.1V1082.1z M24.9,1048.1H-7.2v-32h32.1V1048.1z
	 M24.9,1014.1H-7.2v-32h32.1V1014.1z M24.9,980.2H-7.2v-32h32.1V980.2z M24.9,946.2H-7.2v-32.1h32.1V946.2z M24.9,912.2H-7.2v-32
	h32.1V912.2z M24.9,878.2H-7.2v-32h32.1V878.2z M24.9,844.3H-7.2v-32h32.1V844.3z M24.9,810.3H-7.2v-32h32.1V810.3z M24.9,776.3
	H-7.2v-32h32.1V776.3z M24.9,742.4H-7.2v-32h32.1V742.4z M24.9,708.4H-7.2v-32h32.1V708.4z M24.9,674.5H-7.2v-32.1h32.1V674.5z
	 M24.9,640.4H-7.2v-32h32.1V640.4z M24.9,606.4H-7.2v-32h32.1V606.4z M24.9,572.5H-7.2v-32h32.1V572.5z M24.9,538.5H-7.2v-32h32.1
	V538.5z M24.9,504.6H-7.2v-32h32.1V504.6z M24.9,470.6H-7.2v-32h32.1V470.6z M24.9,436.7H-7.2v-32h32.1V436.7z M24.9,402.7H-7.2
	v-32.1h32.1V402.7z M24.9,368.6H-7.2v-32h32.1V368.6z M24.9,334.7H-7.2v-32h32.1V334.7z M24.9,300.7H-7.2v-32h32.1V300.7z
	 M24.9,266.8H-7.2v-32h32.1V266.8z M24.9,232.8H-7.2v-32h32.1V232.8z M24.9,198.8H-7.2v-32h32.1V198.8z M24.9,164.9H-7.2v-32h32.1
	V164.9z M24.9,130.9H-7.2V98.8h32.1V130.9z M24.9,96.9H-7.2v-32h32.1V96.9z M24.9,62.9H-7.2v-32h32.1V62.9z M24.9,29H-7.2v-32h32.1
	V29z M58.9,1082.1h-32v-32h32V1082.1z M58.9,1048.1h-32v-32h32V1048.1z M58.9,1014.1h-32v-32h32V1014.1z M58.9,980.2h-32v-32h32
	V980.2z M58.9,946.2h-32v-32.1h32V946.2z M58.9,912.2h-32v-32h32V912.2z M58.9,878.2h-32v-32h32V878.2z M58.9,844.3h-32v-32h32
	V844.3z M58.9,810.3h-32v-32h32V810.3z M58.9,776.3h-32v-32h32V776.3z M58.9,742.4h-32v-32h32V742.4z M58.9,708.4h-32v-32h32V708.4z
	 M58.9,674.5h-32v-32.1h32V674.5z M58.9,640.4h-32v-32h32V640.4z M58.9,606.4h-32v-32h32V606.4z M58.9,572.5h-32v-32h32V572.5z
	 M58.9,538.5h-32v-32h32V538.5z M58.9,504.6h-32v-32h32V504.6z M58.9,470.6h-32v-32h32V470.6z M58.9,436.7h-32v-32h32V436.7z
	 M58.9,402.7h-32v-32.1h32V402.7z M58.9,368.6h-32v-32h32V368.6z M58.9,334.7h-32v-32h32V334.7z M58.9,300.7h-32v-32h32V300.7z
	 M58.9,266.8h-32v-32h32V266.8z M58.9,232.8h-32v-32h32V232.8z M58.9,198.8h-32v-32h32V198.8z M58.9,164.9h-32v-32h32V164.9z
	 M58.9,130.9h-32V98.8h32V130.9z M58.9,96.9h-32v-32h32V96.9z M58.9,62.9h-32v-32h32V62.9z M58.9,29h-32v-32h32V29z M92.8,1082.1
	h-32v-32h32V1082.1z M92.8,1048.1h-32v-32h32V1048.1z M92.8,1014.1h-32v-32h32V1014.1z M92.8,980.2h-32v-32h32V980.2z M92.8,946.2
	h-32v-32.1h32V946.2z M92.8,912.2h-32v-32h32V912.2z M92.8,878.2h-32v-32h32V878.2z M92.8,844.3h-32v-32h32V844.3z M92.8,810.3h-32
	v-32h32V810.3z M92.8,776.3h-32v-32h32V776.3z M92.8,742.4h-32v-32h32V742.4z M92.8,708.4h-32v-32h32V708.4z M92.8,674.5h-32v-32.1
	h32V674.5z M92.8,640.4h-32v-32h32V640.4z M92.8,606.4h-32v-32h32V606.4z M92.8,572.5h-32v-32h32V572.5z M92.8,538.5h-32v-32h32
	V538.5z M92.8,504.6h-32v-32h32V504.6z M92.8,470.6h-32v-32h32V470.6z M92.8,436.7h-32v-32h32V436.7z M92.8,402.7h-32v-32.1h32
	V402.7z M92.8,368.6h-32v-32h32V368.6z M92.8,334.7h-32v-32h32V334.7z M92.8,300.7h-32v-32h32V300.7z M92.8,266.8h-32v-32h32V266.8z
	 M92.8,232.8h-32v-32h32V232.8z M92.8,198.8h-32v-32h32V198.8z M92.8,164.9h-32v-32h32V164.9z M92.8,130.9h-32V98.8h32V130.9z
	 M92.8,96.9h-32v-32h32V96.9z M92.8,62.9h-32v-32h32V62.9z M92.8,29h-32v-32h32V29z M126.8,1082.1h-32v-32h32V1082.1z M126.8,1048.1
	h-32v-32h32V1048.1z M126.8,1014.1h-32v-32h32V1014.1z M126.8,980.2h-32v-32h32V980.2z M126.8,946.2h-32v-32.1h32V946.2z
	 M126.8,912.2h-32v-32h32V912.2z M126.8,878.2h-32v-32h32V878.2z M126.8,844.3h-32v-32h32V844.3z M126.8,810.3h-32v-32h32V810.3z
	 M126.8,776.3h-32v-32h32V776.3z M126.8,742.4h-32v-32h32V742.4z M126.8,708.4h-32v-32h32V708.4z M126.8,674.5h-32v-32.1h32V674.5z
	 M126.8,640.4h-32v-32h32V640.4z M126.8,606.4h-32v-32h32V606.4z M126.8,572.5h-32v-32h32V572.5z M126.8,538.5h-32v-32h32V538.5z
	 M126.8,504.6h-32v-32h32V504.6z M126.8,470.6h-32v-32h32V470.6z M126.8,436.7h-32v-32h32V436.7z M126.8,402.7h-32v-32.1h32V402.7z
	 M126.8,368.6h-32v-32h32V368.6z M126.8,334.7h-32v-32h32V334.7z M126.8,300.7h-32v-32h32V300.7z M126.8,266.8h-32v-32h32V266.8z
	 M126.8,232.8h-32v-32h32V232.8z M126.8,198.8h-32v-32h32V198.8z M126.8,164.9h-32v-32h32V164.9z M126.8,130.9h-32V98.8h32V130.9z
	 M126.8,96.9h-32v-32h32V96.9z M126.8,62.9h-32v-32h32V62.9z M126.8,29h-32v-32h32V29z M160.8,1082.1h-32v-32h32V1082.1z
	 M160.8,1048.1h-32v-32h32V1048.1z M160.8,1014.1h-32v-32h32V1014.1z M160.8,980.2h-32v-32h32V980.2z M160.8,946.2h-32v-32.1h32
	V946.2z M160.8,912.2h-32v-32h32V912.2z M160.8,878.2h-32v-32h32V878.2z M160.8,844.3h-32v-32h32V844.3z M160.8,810.3h-32v-32h32
	V810.3z M160.8,776.3h-32v-32h32V776.3z M160.8,742.4h-32v-32h32V742.4z M160.8,708.4h-32v-32h32V708.4z M160.8,674.5h-32v-32.1h32
	V674.5z M160.8,640.4h-32v-32h32V640.4z M160.8,606.4h-32v-32h32V606.4z M160.8,572.5h-32v-32h32V572.5z M160.8,538.5h-32v-32h32
	V538.5z M160.8,504.6h-32v-32h32V504.6z M160.8,470.6h-32v-32h32V470.6z M160.8,436.7h-32v-32h32V436.7z M160.8,402.7h-32v-32.1h32
	V402.7z M160.8,368.6h-32v-32h32V368.6z M160.8,334.7h-32v-32h32V334.7z M160.8,300.7h-32v-32h32V300.7z M160.8,266.8h-32v-32h32
	V266.8z M160.8,232.8h-32v-32h32V232.8z M160.8,198.8h-32v-32h32V198.8z M160.8,164.9h-32v-32h32V164.9z M160.8,130.9h-32V98.8h32
	V130.9z M160.8,96.9h-32v-32h32V96.9z M160.8,62.9h-32v-32h32V62.9z M160.8,29h-32v-32h32V29z M194.7,1082.1h-32v-32h32V1082.1z
	 M194.7,1048.1h-32v-32h32V1048.1z M194.7,1014.1h-32v-32h32V1014.1z M194.7,980.2h-32v-32h32V980.2z M194.7,946.2h-32v-32.1h32
	V946.2z M194.7,912.2h-32v-32h32V912.2z M194.7,878.2h-32v-32h32V878.2z M194.7,844.3h-32v-32h32V844.3z M194.7,810.3h-32v-32h32
	V810.3z M194.7,776.3h-32v-32h32V776.3z M194.7,742.4h-32v-32h32V742.4z M194.7,708.4h-32v-32h32V708.4z M194.7,674.5h-32v-32.1h32
	V674.5z M194.7,640.4h-32v-32h32V640.4z M194.7,606.4h-32v-32h32V606.4z M194.7,572.5h-32v-32h32V572.5z M194.7,538.5h-32v-32h32
	V538.5z M194.7,504.6h-32v-32h32V504.6z M194.7,470.6h-32v-32h32V470.6z M194.7,436.7h-32v-32h32V436.7z M194.7,402.7h-32v-32.1h32
	V402.7z M194.7,368.6h-32v-32h32V368.6z M194.7,334.7h-32v-32h32V334.7z M194.7,300.7h-32v-32h32V300.7z M194.7,266.8h-32v-32h32
	V266.8z M194.7,232.8h-32v-32h32V232.8z M194.7,198.8h-32v-32h32V198.8z M194.7,164.9h-32v-32h32V164.9z M194.7,130.9h-32V98.8h32
	V130.9z M194.7,96.9h-32v-32h32V96.9z M194.7,62.9h-32v-32h32V62.9z M194.7,29h-32v-32h32V29z M228.7,1082.1h-32v-32h32V1082.1z
	 M228.7,1048.1h-32v-32h32V1048.1z M228.7,1014.1h-32v-32h32V1014.1z M228.7,980.2h-32v-32h32V980.2z M228.7,946.2h-32v-32.1h32
	V946.2z M228.7,912.2h-32v-32h32V912.2z M228.7,878.2h-32v-32h32V878.2z M228.7,844.3h-32v-32h32V844.3z M228.7,810.3h-32v-32h32
	V810.3z M228.7,776.3h-32v-32h32V776.3z M228.7,742.4h-32v-32h32V742.4z M228.7,708.4h-32v-32h32V708.4z M228.7,674.5h-32v-32.1h32
	V674.5z M228.7,640.4h-32v-32h32V640.4z M228.7,606.4h-32v-32h32V606.4z M228.7,572.5h-32v-32h32V572.5z M228.7,538.5h-32v-32h32
	V538.5z M228.7,504.6h-32v-32h32V504.6z M228.7,470.6h-32v-32h32V470.6z M228.7,436.7h-32v-32h32V436.7z M228.7,402.7h-32v-32.1h32
	V402.7z M228.7,368.6h-32v-32h32V368.6z M228.7,334.7h-32v-32h32V334.7z M228.7,300.7h-32v-32h32V300.7z M228.7,266.8h-32v-32h32
	V266.8z M228.7,232.8h-32v-32h32V232.8z M228.7,198.8h-32v-32h32V198.8z M228.7,164.9h-32v-32h32V164.9z M228.7,130.9h-32V98.8h32
	V130.9z M228.7,96.9h-32v-32h32V96.9z M228.7,62.9h-32v-32h32V62.9z M228.7,29h-32v-32h32V29z M262.6,1082.1h-32v-32h32V1082.1z
	 M262.6,1048.1h-32v-32h32V1048.1z M262.6,1014.1h-32v-32h32V1014.1z M262.6,980.2h-32v-32h32V980.2z M262.6,946.2h-32v-32.1h32
	V946.2z M262.6,912.2h-32v-32h32V912.2z M262.6,878.2h-32v-32h32V878.2z M262.6,844.3h-32v-32h32V844.3z M262.6,810.3h-32v-32h32
	V810.3z M262.6,776.3h-32v-32h32V776.3z M262.6,742.4h-32v-32h32V742.4z M262.6,708.4h-32v-32h32V708.4z M262.6,674.5h-32v-32.1h32
	V674.5z M262.6,640.4h-32v-32h32V640.4z M262.6,606.4h-32v-32h32V606.4z M262.6,572.5h-32v-32h32V572.5z M262.6,538.5h-32v-32h32
	V538.5z M262.6,504.6h-32v-32h32V504.6z M262.6,470.6h-32v-32h32V470.6z M262.6,436.7h-32v-32h32V436.7z M262.6,402.7h-32v-32.1h32
	V402.7z M262.6,368.6h-32v-32h32V368.6z M262.6,334.7h-32v-32h32V334.7z M262.6,300.7h-32v-32h32V300.7z M262.6,266.8h-32v-32h32
	V266.8z M262.6,232.8h-32v-32h32V232.8z M262.6,198.8h-32v-32h32V198.8z M262.6,164.9h-32v-32h32V164.9z M262.6,130.9h-32V98.8h32
	V130.9z M262.6,96.9h-32v-32h32V96.9z M262.6,62.9h-32v-32h32V62.9z M262.6,29h-32v-32h32V29z M296.7,1082.1h-32.1v-32h32.1V1082.1z
	 M296.7,1048.1h-32.1v-32h32.1V1048.1z M296.7,1014.1h-32.1v-32h32.1V1014.1z M296.7,980.2h-32.1v-32h32.1V980.2z M296.7,946.2
	h-32.1v-32.1h32.1V946.2z M296.7,912.2h-32.1v-32h32.1V912.2z M296.7,878.2h-32.1v-32h32.1V878.2z M296.7,844.3h-32.1v-32h32.1
	V844.3z M296.7,810.3h-32.1v-32h32.1V810.3z M296.7,776.3h-32.1v-32h32.1V776.3z M296.7,742.4h-32.1v-32h32.1V742.4z M296.7,708.4
	h-32.1v-32h32.1V708.4z M296.7,674.5h-32.1v-32.1h32.1V674.5z M296.7,640.4h-32.1v-32h32.1V640.4z M296.7,606.4h-32.1v-32h32.1
	V606.4z M296.7,572.5h-32.1v-32h32.1V572.5z M296.7,538.5h-32.1v-32h32.1V538.5z M296.7,504.6h-32.1v-32h32.1V504.6z M296.7,470.6
	h-32.1v-32h32.1V470.6z M296.7,436.7h-32.1v-32h32.1V436.7z M296.7,402.7h-32.1v-32.1h32.1V402.7z M296.7,368.6h-32.1v-32h32.1
	V368.6z M296.7,334.7h-32.1v-32h32.1V334.7z M296.7,300.7h-32.1v-32h32.1V300.7z M296.7,266.8h-32.1v-32h32.1V266.8z M296.7,232.8
	h-32.1v-32h32.1V232.8z M296.7,198.8h-32.1v-32h32.1V198.8z M296.7,164.9h-32.1v-32h32.1V164.9z M296.7,130.9h-32.1V98.8h32.1V130.9
	z M296.7,96.9h-32.1v-32h32.1V96.9z M296.7,62.9h-32.1v-32h32.1V62.9z M296.7,29h-32.1v-32h32.1V29z M330.7,1082.1h-32v-32h32
	V1082.1z M330.7,1048.1h-32v-32h32V1048.1z M330.7,1014.1h-32v-32h32V1014.1z M330.7,980.2h-32v-32h32V980.2z M330.7,946.2h-32
	v-32.1h32V946.2z M330.7,912.2h-32v-32h32V912.2z M330.7,878.2h-32v-32h32V878.2z M330.7,844.3h-32v-32h32V844.3z M330.7,810.3h-32
	v-32h32V810.3z M330.7,776.3h-32v-32h32V776.3z M330.7,742.4h-32v-32h32V742.4z M330.7,708.4h-32v-32h32V708.4z M330.7,674.5h-32
	v-32.1h32V674.5z M330.7,640.4h-32v-32h32V640.4z M330.7,606.4h-32v-32h32V606.4z M330.7,572.5h-32v-32h32V572.5z M330.7,538.5h-32
	v-32h32V538.5z M330.7,504.6h-32v-32h32V504.6z M330.7,470.6h-32v-32h32V470.6z M330.7,436.7h-32v-32h32V436.7z M330.7,402.7h-32
	v-32.1h32V402.7z M330.7,368.6h-32v-32h32V368.6z M330.7,334.7h-32v-32h32V334.7z M330.7,300.7h-32v-32h32V300.7z M330.7,266.8h-32
	v-32h32V266.8z M330.7,232.8h-32v-32h32V232.8z M330.7,198.8h-32v-32h32V198.8z M330.7,164.9h-32v-32h32V164.9z M330.7,130.9h-32
	V98.8h32V130.9z M330.7,96.9h-32v-32h32V96.9z M330.7,62.9h-32v-32h32V62.9z M330.7,29h-32v-32h32V29z M364.6,1082.1h-32v-32h32
	V1082.1z M364.6,1048.1h-32v-32h32V1048.1z M364.6,1014.1h-32v-32h32V1014.1z M364.6,980.2h-32v-32h32V980.2z M364.6,946.2h-32
	v-32.1h32V946.2z M364.6,912.2h-32v-32h32V912.2z M364.6,878.2h-32v-32h32V878.2z M364.6,844.3h-32v-32h32V844.3z M364.6,810.3h-32
	v-32h32V810.3z M364.6,776.3h-32v-32h32V776.3z M364.6,742.4h-32v-32h32V742.4z M364.6,708.4h-32v-32h32V708.4z M364.6,674.5h-32
	v-32.1h32V674.5z M364.6,640.4h-32v-32h32V640.4z M364.6,606.4h-32v-32h32V606.4z M364.6,572.5h-32v-32h32V572.5z M364.6,538.5h-32
	v-32h32V538.5z M364.6,504.6h-32v-32h32V504.6z M364.6,470.6h-32v-32h32V470.6z M364.6,436.7h-32v-32h32V436.7z M364.6,402.7h-32
	v-32.1h32V402.7z M364.6,368.6h-32v-32h32V368.6z M364.6,334.7h-32v-32h32V334.7z M364.6,300.7h-32v-32h32V300.7z M364.6,266.8h-32
	v-32h32V266.8z M364.6,232.8h-32v-32h32V232.8z M364.6,198.8h-32v-32h32V198.8z M364.6,164.9h-32v-32h32V164.9z M364.6,130.9h-32
	V98.8h32V130.9z M364.6,96.9h-32v-32h32V96.9z M364.6,62.9h-32v-32h32V62.9z M364.6,29h-32v-32h32V29z M398.6,1082.1h-32v-32h32
	V1082.1z M398.6,1048.1h-32v-32h32V1048.1z M398.6,1014.1h-32v-32h32V1014.1z M398.6,980.2h-32v-32h32V980.2z M398.6,946.2h-32
	v-32.1h32V946.2z M398.6,912.2h-32v-32h32V912.2z M398.6,878.2h-32v-32h32V878.2z M398.6,844.3h-32v-32h32V844.3z M398.6,810.3h-32
	v-32h32V810.3z M398.6,776.3h-32v-32h32V776.3z M398.6,742.4h-32v-32h32V742.4z M398.6,708.4h-32v-32h32V708.4z M398.6,674.5h-32
	v-32.1h32V674.5z M398.6,640.4h-32v-32h32V640.4z M398.6,606.4h-32v-32h32V606.4z M398.6,572.5h-32v-32h32V572.5z M398.6,538.5h-32
	v-32h32V538.5z M398.6,504.6h-32v-32h32V504.6z M398.6,470.6h-32v-32h32V470.6z M398.6,436.7h-32v-32h32V436.7z M398.6,402.7h-32
	v-32.1h32V402.7z M398.6,368.6h-32v-32h32V368.6z M398.6,334.7h-32v-32h32V334.7z M398.6,300.7h-32v-32h32V300.7z M398.6,266.8h-32
	v-32h32V266.8z M398.6,232.8h-32v-32h32V232.8z M398.6,198.8h-32v-32h32V198.8z M398.6,164.9h-32v-32h32V164.9z M398.6,130.9h-32
	V98.8h32V130.9z M398.6,96.9h-32v-32h32V96.9z M398.6,62.9h-32v-32h32V62.9z M398.6,29h-32v-32h32V29z M432.5,1082.1h-32v-32h32
	V1082.1z M432.5,1048.1h-32v-32h32V1048.1z M432.5,1014.1h-32v-32h32V1014.1z M432.5,980.2h-32v-32h32V980.2z M432.5,946.2h-32
	v-32.1h32V946.2z M432.5,912.2h-32v-32h32V912.2z M432.5,878.2h-32v-32h32V878.2z M432.5,844.3h-32v-32h32V844.3z M432.5,810.3h-32
	v-32h32V810.3z M432.5,776.3h-32v-32h32V776.3z M432.5,742.4h-32v-32h32V742.4z M432.5,708.4h-32v-32h32V708.4z M432.5,674.5h-32
	v-32.1h32V674.5z M432.5,640.4h-32v-32h32V640.4z M432.5,606.4h-32v-32h32V606.4z M432.5,572.5h-32v-32h32V572.5z M432.5,538.5h-32
	v-32h32V538.5z M432.5,504.6h-32v-32h32V504.6z M432.5,470.6h-32v-32h32V470.6z M432.5,436.7h-32v-32h32V436.7z M432.5,402.7h-32
	v-32.1h32V402.7z M432.5,368.6h-32v-32h32V368.6z M432.5,334.7h-32v-32h32V334.7z M432.5,300.7h-32v-32h32V300.7z M432.5,266.8h-32
	v-32h32V266.8z M432.5,232.8h-32v-32h32V232.8z M432.5,198.8h-32v-32h32V198.8z M432.5,164.9h-32v-32h32V164.9z M432.5,130.9h-32
	V98.8h32V130.9z M432.5,96.9h-32v-32h32V96.9z M432.5,62.9h-32v-32h32V62.9z M432.5,29h-32v-32h32V29z M466.5,1082.1h-32v-32h32
	V1082.1z M466.5,1048.1h-32v-32h32V1048.1z M466.5,1014.1h-32v-32h32V1014.1z M466.5,980.2h-32v-32h32V980.2z M466.5,946.2h-32
	v-32.1h32V946.2z M466.5,912.2h-32v-32h32V912.2z M466.5,878.2h-32v-32h32V878.2z M466.5,844.3h-32v-32h32V844.3z M466.5,810.3h-32
	v-32h32V810.3z M466.5,776.3h-32v-32h32V776.3z M466.5,742.4h-32v-32h32V742.4z M466.5,708.4h-32v-32h32V708.4z M466.5,674.5h-32
	v-32.1h32V674.5z M466.5,640.4h-32v-32h32V640.4z M466.5,606.4h-32v-32h32V606.4z M466.5,572.5h-32v-32h32V572.5z M466.5,538.5h-32
	v-32h32V538.5z M466.5,504.6h-32v-32h32V504.6z M466.5,470.6h-32v-32h32V470.6z M466.5,436.7h-32v-32h32V436.7z M466.5,402.7h-32
	v-32.1h32V402.7z M466.5,368.6h-32v-32h32V368.6z M466.5,334.7h-32v-32h32V334.7z M466.5,300.7h-32v-32h32V300.7z M466.5,266.8h-32
	v-32h32V266.8z M466.5,232.8h-32v-32h32V232.8z M466.5,198.8h-32v-32h32V198.8z M466.5,164.9h-32v-32h32V164.9z M466.5,130.9h-32
	V98.8h32V130.9z M466.5,96.9h-32v-32h32V96.9z M466.5,62.9h-32v-32h32V62.9z M466.5,29h-32v-32h32V29z M500.4,1082.1h-32v-32h32
	V1082.1z M500.4,1048.1h-32v-32h32V1048.1z M500.4,1014.1h-32v-32h32V1014.1z M500.4,980.2h-32v-32h32V980.2z M500.4,946.2h-32
	v-32.1h32V946.2z M500.4,912.2h-32v-32h32V912.2z M500.4,878.2h-32v-32h32V878.2z M500.4,844.3h-32v-32h32V844.3z M500.4,810.3h-32
	v-32h32V810.3z M500.4,776.3h-32v-32h32V776.3z M500.4,742.4h-32v-32h32V742.4z M500.4,708.4h-32v-32h32V708.4z M500.4,674.5h-32
	v-32.1h32V674.5z M500.4,640.4h-32v-32h32V640.4z M500.4,606.4h-32v-32h32V606.4z M500.4,572.5h-32v-32h32V572.5z M500.4,538.5h-32
	v-32h32V538.5z M500.4,504.6h-32v-32h32V504.6z M500.4,470.6h-32v-32h32V470.6z M500.4,436.7h-32v-32h32V436.7z M500.4,402.7h-32
	v-32.1h32V402.7z M500.4,368.6h-32v-32h32V368.6z M500.4,334.7h-32v-32h32V334.7z M500.4,300.7h-32v-32h32V300.7z M500.4,266.8h-32
	v-32h32V266.8z M500.4,232.8h-32v-32h32V232.8z M500.4,198.8h-32v-32h32V198.8z M500.4,164.9h-32v-32h32V164.9z M500.4,130.9h-32
	V98.8h32V130.9z M500.4,96.9h-32v-32h32V96.9z M500.4,62.9h-32v-32h32V62.9z M500.4,29h-32v-32h32V29z M534.4,1082.1h-32v-32h32
	V1082.1z M534.4,1048.1h-32v-32h32V1048.1z M534.4,1014.1h-32v-32h32V1014.1z M534.4,980.2h-32v-32h32V980.2z M534.4,946.2h-32
	v-32.1h32V946.2z M534.4,912.2h-32v-32h32V912.2z M534.4,878.2h-32v-32h32V878.2z M534.4,844.3h-32v-32h32V844.3z M534.4,810.3h-32
	v-32h32V810.3z M534.4,776.3h-32v-32h32V776.3z M534.4,742.4h-32v-32h32V742.4z M534.4,708.4h-32v-32h32V708.4z M534.4,674.5h-32
	v-32.1h32V674.5z M534.4,640.4h-32v-32h32V640.4z M534.4,606.4h-32v-32h32V606.4z M534.4,572.5h-32v-32h32V572.5z M534.4,538.5h-32
	v-32h32V538.5z M534.4,504.6h-32v-32h32V504.6z M534.4,470.6h-32v-32h32V470.6z M534.4,436.7h-32v-32h32V436.7z M534.4,402.7h-32
	v-32.1h32V402.7z M534.4,368.6h-32v-32h32V368.6z M534.4,334.7h-32v-32h32V334.7z M534.4,300.7h-32v-32h32V300.7z M534.4,266.8h-32
	v-32h32V266.8z M534.4,232.8h-32v-32h32V232.8z M534.4,198.8h-32v-32h32V198.8z M534.4,164.9h-32v-32h32V164.9z M534.4,130.9h-32
	V98.8h32V130.9z M534.4,96.9h-32v-32h32V96.9z M534.4,62.9h-32v-32h32V62.9z M534.4,29h-32v-32h32V29z M568.5,1082.1h-32.1v-32h32.1
	V1082.1z M568.5,1048.1h-32.1v-32h32.1V1048.1z M568.5,1014.1h-32.1v-32h32.1V1014.1z M568.5,980.2h-32.1v-32h32.1V980.2z
	 M568.5,946.2h-32.1v-32.1h32.1V946.2z M568.5,912.2h-32.1v-32h32.1V912.2z M568.5,878.2h-32.1v-32h32.1V878.2z M568.5,844.3h-32.1
	v-32h32.1V844.3z M568.5,810.3h-32.1v-32h32.1V810.3z M568.5,776.3h-32.1v-32h32.1V776.3z M568.5,742.4h-32.1v-32h32.1V742.4z
	 M568.5,708.4h-32.1v-32h32.1V708.4z M568.5,674.5h-32.1v-32.1h32.1V674.5z M568.5,640.4h-32.1v-32h32.1V640.4z M568.5,606.4h-32.1
	v-32h32.1V606.4z M568.5,572.5h-32.1v-32h32.1V572.5z M568.5,538.5h-32.1v-32h32.1V538.5z M568.5,504.6h-32.1v-32h32.1V504.6z
	 M568.5,470.6h-32.1v-32h32.1V470.6z M568.5,436.7h-32.1v-32h32.1V436.7z M568.5,402.7h-32.1v-32.1h32.1V402.7z M568.5,368.6h-32.1
	v-32h32.1V368.6z M568.5,334.7h-32.1v-32h32.1V334.7z M568.5,300.7h-32.1v-32h32.1V300.7z M568.5,266.8h-32.1v-32h32.1V266.8z
	 M568.5,232.8h-32.1v-32h32.1V232.8z M568.5,198.8h-32.1v-32h32.1V198.8z M568.5,164.9h-32.1v-32h32.1V164.9z M568.5,130.9h-32.1
	V98.8h32.1V130.9z M568.5,96.9h-32.1v-32h32.1V96.9z M568.5,62.9h-32.1v-32h32.1V62.9z M568.5,29h-32.1v-32h32.1V29z M602.4,1082.1
	h-32v-32h32V1082.1z M602.4,1048.1h-32v-32h32V1048.1z M602.4,1014.1h-32v-32h32V1014.1z M602.4,980.2h-32v-32h32V980.2z
	 M602.4,946.2h-32v-32.1h32V946.2z M602.4,912.2h-32v-32h32V912.2z M602.4,878.2h-32v-32h32V878.2z M602.4,844.3h-32v-32h32V844.3z
	 M602.4,810.3h-32v-32h32V810.3z M602.4,776.3h-32v-32h32V776.3z M602.4,742.4h-32v-32h32V742.4z M602.4,708.4h-32v-32h32V708.4z
	 M602.4,674.5h-32v-32.1h32V674.5z M602.4,640.4h-32v-32h32V640.4z M602.4,606.4h-32v-32h32V606.4z M602.4,572.5h-32v-32h32V572.5z
	 M602.4,538.5h-32v-32h32V538.5z M602.4,504.6h-32v-32h32V504.6z M602.4,470.6h-32v-32h32V470.6z M602.4,436.7h-32v-32h32V436.7z
	 M602.4,402.7h-32v-32.1h32V402.7z M602.4,368.6h-32v-32h32V368.6z M602.4,334.7h-32v-32h32V334.7z M602.4,300.7h-32v-32h32V300.7z
	 M602.4,266.8h-32v-32h32V266.8z M602.4,232.8h-32v-32h32V232.8z M602.4,198.8h-32v-32h32V198.8z M602.4,164.9h-32v-32h32V164.9z
	 M602.4,130.9h-32V98.8h32V130.9z M602.4,96.9h-32v-32h32V96.9z M602.4,62.9h-32v-32h32V62.9z M602.4,29h-32v-32h32V29z
	 M636.4,1082.1h-32v-32h32V1082.1z M636.4,1048.1h-32v-32h32V1048.1z M636.4,1014.1h-32v-32h32V1014.1z M636.4,980.2h-32v-32h32
	V980.2z M636.4,946.2h-32v-32.1h32V946.2z M636.4,912.2h-32v-32h32V912.2z M636.4,878.2h-32v-32h32V878.2z M636.4,844.3h-32v-32h32
	V844.3z M636.4,810.3h-32v-32h32V810.3z M636.4,776.3h-32v-32h32V776.3z M636.4,742.4h-32v-32h32V742.4z M636.4,708.4h-32v-32h32
	V708.4z M636.4,674.5h-32v-32.1h32V674.5z M636.4,640.4h-32v-32h32V640.4z M636.4,606.4h-32v-32h32V606.4z M636.4,572.5h-32v-32h32
	V572.5z M636.4,538.5h-32v-32h32V538.5z M636.4,504.6h-32v-32h32V504.6z M636.4,470.6h-32v-32h32V470.6z M636.4,436.7h-32v-32h32
	V436.7z M636.4,402.7h-32v-32.1h32V402.7z M636.4,368.6h-32v-32h32V368.6z M636.4,334.7h-32v-32h32V334.7z M636.4,300.7h-32v-32h32
	V300.7z M636.4,266.8h-32v-32h32V266.8z M636.4,232.8h-32v-32h32V232.8z M636.4,198.8h-32v-32h32V198.8z M636.4,164.9h-32v-32h32
	V164.9z M636.4,130.9h-32V98.8h32V130.9z M636.4,96.9h-32v-32h32V96.9z M636.4,62.9h-32v-32h32V62.9z M636.4,29h-32v-32h32V29z
	 M670.3,1082.1h-32v-32h32V1082.1z M670.3,1048.1h-32v-32h32V1048.1z M670.3,1014.1h-32v-32h32V1014.1z M670.3,980.2h-32v-32h32
	V980.2z M670.3,946.2h-32v-32.1h32V946.2z M670.3,912.2h-32v-32h32V912.2z M670.3,878.2h-32v-32h32V878.2z M670.3,844.3h-32v-32h32
	V844.3z M670.3,810.3h-32v-32h32V810.3z M670.3,776.3h-32v-32h32V776.3z M670.3,742.4h-32v-32h32V742.4z M670.3,708.4h-32v-32h32
	V708.4z M670.3,674.5h-32v-32.1h32V674.5z M670.3,640.4h-32v-32h32V640.4z M670.3,606.4h-32v-32h32V606.4z M670.3,572.5h-32v-32h32
	V572.5z M670.3,538.5h-32v-32h32V538.5z M670.3,504.6h-32v-32h32V504.6z M670.3,470.6h-32v-32h32V470.6z M670.3,436.7h-32v-32h32
	V436.7z M670.3,402.7h-32v-32.1h32V402.7z M670.3,368.6h-32v-32h32V368.6z M670.3,334.7h-32v-32h32V334.7z M670.3,300.7h-32v-32h32
	V300.7z M670.3,266.8h-32v-32h32V266.8z M670.3,232.8h-32v-32h32V232.8z M670.3,198.8h-32v-32h32V198.8z M670.3,164.9h-32v-32h32
	V164.9z M670.3,130.9h-32V98.8h32V130.9z M670.3,96.9h-32v-32h32V96.9z M670.3,62.9h-32v-32h32V62.9z M670.3,29h-32v-32h32V29z
	 M704.3,1082.1h-32v-32h32V1082.1z M704.3,1048.1h-32v-32h32V1048.1z M704.3,1014.1h-32v-32h32V1014.1z M704.3,980.2h-32v-32h32
	V980.2z M704.3,946.2h-32v-32.1h32V946.2z M704.3,912.2h-32v-32h32V912.2z M704.3,878.2h-32v-32h32V878.2z M704.3,844.3h-32v-32h32
	V844.3z M704.3,810.3h-32v-32h32V810.3z M704.3,776.3h-32v-32h32V776.3z M704.3,742.4h-32v-32h32V742.4z M704.3,708.4h-32v-32h32
	V708.4z M704.3,674.5h-32v-32.1h32V674.5z M704.3,640.4h-32v-32h32V640.4z M704.3,606.4h-32v-32h32V606.4z M704.3,572.5h-32v-32h32
	V572.5z M704.3,538.5h-32v-32h32V538.5z M704.3,504.6h-32v-32h32V504.6z M704.3,470.6h-32v-32h32V470.6z M704.3,436.7h-32v-32h32
	V436.7z M704.3,402.7h-32v-32.1h32V402.7z M704.3,368.6h-32v-32h32V368.6z M704.3,334.7h-32v-32h32V334.7z M704.3,300.7h-32v-32h32
	V300.7z M704.3,266.8h-32v-32h32V266.8z M704.3,232.8h-32v-32h32V232.8z M704.3,198.8h-32v-32h32V198.8z M704.3,164.9h-32v-32h32
	V164.9z M704.3,130.9h-32V98.8h32V130.9z M704.3,96.9h-32v-32h32V96.9z M704.3,62.9h-32v-32h32V62.9z M704.3,29h-32v-32h32V29z
	 M738.3,1082.1h-32v-32h32V1082.1z M738.3,1048.1h-32v-32h32V1048.1z M738.3,1014.1h-32v-32h32V1014.1z M738.3,980.2h-32v-32h32
	V980.2z M738.3,946.2h-32v-32.1h32V946.2z M738.3,912.2h-32v-32h32V912.2z M738.3,878.2h-32v-32h32V878.2z M738.3,844.3h-32v-32h32
	V844.3z M738.3,810.3h-32v-32h32V810.3z M738.3,776.3h-32v-32h32V776.3z M738.3,742.4h-32v-32h32V742.4z M738.3,708.4h-32v-32h32
	V708.4z M738.3,674.5h-32v-32.1h32V674.5z M738.3,640.4h-32v-32h32V640.4z M738.3,606.4h-32v-32h32V606.4z M738.3,572.5h-32v-32h32
	V572.5z M738.3,538.5h-32v-32h32V538.5z M738.3,504.6h-32v-32h32V504.6z M738.3,470.6h-32v-32h32V470.6z M738.3,436.7h-32v-32h32
	V436.7z M738.3,402.7h-32v-32.1h32V402.7z M738.3,368.6h-32v-32h32V368.6z M738.3,334.7h-32v-32h32V334.7z M738.3,300.7h-32v-32h32
	V300.7z M738.3,266.8h-32v-32h32V266.8z M738.3,232.8h-32v-32h32V232.8z M738.3,198.8h-32v-32h32V198.8z M738.3,164.9h-32v-32h32
	V164.9z M738.3,130.9h-32V98.8h32V130.9z M738.3,96.9h-32v-32h32V96.9z M738.3,62.9h-32v-32h32V62.9z M738.3,29h-32v-32h32V29z
	 M772.2,1082.1h-32v-32h32V1082.1z M772.2,1048.1h-32v-32h32V1048.1z M772.2,1014.1h-32v-32h32V1014.1z M772.2,980.2h-32v-32h32
	V980.2z M772.2,946.2h-32v-32.1h32V946.2z M772.2,912.2h-32v-32h32V912.2z M772.2,878.2h-32v-32h32V878.2z M772.2,844.3h-32v-32h32
	V844.3z M772.2,810.3h-32v-32h32V810.3z M772.2,776.3h-32v-32h32V776.3z M772.2,742.4h-32v-32h32V742.4z M772.2,708.4h-32v-32h32
	V708.4z M772.2,674.5h-32v-32.1h32V674.5z M772.2,640.4h-32v-32h32V640.4z M772.2,606.4h-32v-32h32V606.4z M772.2,572.5h-32v-32h32
	V572.5z M772.2,538.5h-32v-32h32V538.5z M772.2,504.6h-32v-32h32V504.6z M772.2,470.6h-32v-32h32V470.6z M772.2,436.7h-32v-32h32
	V436.7z M772.2,402.7h-32v-32.1h32V402.7z M772.2,368.6h-32v-32h32V368.6z M772.2,334.7h-32v-32h32V334.7z M772.2,300.7h-32v-32h32
	V300.7z M772.2,266.8h-32v-32h32V266.8z M772.2,232.8h-32v-32h32V232.8z M772.2,198.8h-32v-32h32V198.8z M772.2,164.9h-32v-32h32
	V164.9z M772.2,130.9h-32V98.8h32V130.9z M772.2,96.9h-32v-32h32V96.9z M772.2,62.9h-32v-32h32V62.9z M772.2,29h-32v-32h32V29z
	 M806.2,1082.1h-32v-32h32V1082.1z M806.2,1048.1h-32v-32h32V1048.1z M806.2,1014.1h-32v-32h32V1014.1z M806.2,980.2h-32v-32h32
	V980.2z M806.2,946.2h-32v-32.1h32V946.2z M806.2,912.2h-32v-32h32V912.2z M806.2,878.2h-32v-32h32V878.2z M806.2,844.3h-32v-32h32
	V844.3z M806.2,810.3h-32v-32h32V810.3z M806.2,776.3h-32v-32h32V776.3z M806.2,742.4h-32v-32h32V742.4z M806.2,708.4h-32v-32h32
	V708.4z M806.2,674.5h-32v-32.1h32V674.5z M806.2,640.4h-32v-32h32V640.4z M806.2,606.4h-32v-32h32V606.4z M806.2,572.5h-32v-32h32
	V572.5z M806.2,538.5h-32v-32h32V538.5z M806.2,504.6h-32v-32h32V504.6z M806.2,470.6h-32v-32h32V470.6z M806.2,436.7h-32v-32h32
	V436.7z M806.2,402.7h-32v-32.1h32V402.7z M806.2,368.6h-32v-32h32V368.6z M806.2,334.7h-32v-32h32V334.7z M806.2,300.7h-32v-32h32
	V300.7z M806.2,266.8h-32v-32h32V266.8z M806.2,232.8h-32v-32h32V232.8z M806.2,198.8h-32v-32h32V198.8z M806.2,164.9h-32v-32h32
	V164.9z M806.2,130.9h-32V98.8h32V130.9z M806.2,96.9h-32v-32h32V96.9z M806.2,62.9h-32v-32h32V62.9z M806.2,29h-32v-32h32V29z
	 M840.2,1082.1h-32.1v-32h32.1V1082.1z M840.2,1048.1h-32.1v-32h32.1V1048.1z M840.2,1014.1h-32.1v-32h32.1V1014.1z M840.2,980.2
	h-32.1v-32h32.1V980.2z M840.2,946.2h-32.1v-32.1h32.1V946.2z M840.2,912.2h-32.1v-32h32.1V912.2z M840.2,878.2h-32.1v-32h32.1
	V878.2z M840.2,844.3h-32.1v-32h32.1V844.3z M840.2,810.3h-32.1v-32h32.1V810.3z M840.2,776.3h-32.1v-32h32.1V776.3z M840.2,742.4
	h-32.1v-32h32.1V742.4z M840.2,708.4h-32.1v-32h32.1V708.4z M840.2,674.5h-32.1v-32.1h32.1V674.5z M840.2,640.4h-32.1v-32h32.1
	V640.4z M840.2,606.4h-32.1v-32h32.1V606.4z M840.2,572.5h-32.1v-32h32.1V572.5z M840.2,538.5h-32.1v-32h32.1V538.5z M840.2,504.6
	h-32.1v-32h32.1V504.6z M840.2,470.6h-32.1v-32h32.1V470.6z M840.2,436.7h-32.1v-32h32.1V436.7z M840.2,402.7h-32.1v-32.1h32.1
	V402.7z M840.2,368.6h-32.1v-32h32.1V368.6z M840.2,334.7h-32.1v-32h32.1V334.7z M840.2,300.7h-32.1v-32h32.1V300.7z M840.2,266.8
	h-32.1v-32h32.1V266.8z M840.2,232.8h-32.1v-32h32.1V232.8z M840.2,198.8h-32.1v-32h32.1V198.8z M840.2,164.9h-32.1v-32h32.1V164.9z
	 M840.2,130.9h-32.1V98.8h32.1V130.9z M840.2,96.9h-32.1v-32h32.1V96.9z M840.2,62.9h-32.1v-32h32.1V62.9z M840.2,29h-32.1v-32h32.1
	V29z M874.2,1082.1h-32v-32h32V1082.1z M874.2,1048.1h-32v-32h32V1048.1z M874.2,1014.1h-32v-32h32V1014.1z M874.2,980.2h-32v-32h32
	V980.2z M874.2,946.2h-32v-32.1h32V946.2z M874.2,912.2h-32v-32h32V912.2z M874.2,878.2h-32v-32h32V878.2z M874.2,844.3h-32v-32h32
	V844.3z M874.2,810.3h-32v-32h32V810.3z M874.2,776.3h-32v-32h32V776.3z M874.2,742.4h-32v-32h32V742.4z M874.2,708.4h-32v-32h32
	V708.4z M874.2,674.5h-32v-32.1h32V674.5z M874.2,640.4h-32v-32h32V640.4z M874.2,606.4h-32v-32h32V606.4z M874.2,572.5h-32v-32h32
	V572.5z M874.2,538.5h-32v-32h32V538.5z M874.2,504.6h-32v-32h32V504.6z M874.2,470.6h-32v-32h32V470.6z M874.2,436.7h-32v-32h32
	V436.7z M874.2,402.7h-32v-32.1h32V402.7z M874.2,368.6h-32v-32h32V368.6z M874.2,334.7h-32v-32h32V334.7z M874.2,300.7h-32v-32h32
	V300.7z M874.2,266.8h-32v-32h32V266.8z M874.2,232.8h-32v-32h32V232.8z M874.2,198.8h-32v-32h32V198.8z M874.2,164.9h-32v-32h32
	V164.9z M874.2,130.9h-32V98.8h32V130.9z M874.2,96.9h-32v-32h32V96.9z M874.2,62.9h-32v-32h32V62.9z M874.2,29h-32v-32h32V29z
	 M908.1,1082.1h-32v-32h32V1082.1z M908.1,1048.1h-32v-32h32V1048.1z M908.1,1014.1h-32v-32h32V1014.1z M908.1,980.2h-32v-32h32
	V980.2z M908.1,946.2h-32v-32.1h32V946.2z M908.1,912.2h-32v-32h32V912.2z M908.1,878.2h-32v-32h32V878.2z M908.1,844.3h-32v-32h32
	V844.3z M908.1,810.3h-32v-32h32V810.3z M908.1,776.3h-32v-32h32V776.3z M908.1,742.4h-32v-32h32V742.4z M908.1,708.4h-32v-32h32
	V708.4z M908.1,674.5h-32v-32.1h32V674.5z M908.1,640.4h-32v-32h32V640.4z M908.1,606.4h-32v-32h32V606.4z M908.1,572.5h-32v-32h32
	V572.5z M908.1,538.5h-32v-32h32V538.5z M908.1,504.6h-32v-32h32V504.6z M908.1,470.6h-32v-32h32V470.6z M908.1,436.7h-32v-32h32
	V436.7z M908.1,402.7h-32v-32.1h32V402.7z M908.1,368.6h-32v-32h32V368.6z M908.1,334.7h-32v-32h32V334.7z M908.1,300.7h-32v-32h32
	V300.7z M908.1,266.8h-32v-32h32V266.8z M908.1,232.8h-32v-32h32V232.8z M908.1,198.8h-32v-32h32V198.8z M908.1,164.9h-32v-32h32
	V164.9z M908.1,130.9h-32V98.8h32V130.9z M908.1,96.9h-32v-32h32V96.9z M908.1,62.9h-32v-32h32V62.9z M908.1,29h-32v-32h32V29z
	 M910.1,1050H942v32h-31.9V1050z M976-3.1v32H944v-32H976z M976,62.9H944v-32H976V62.9z M976,96.9H944v-32H976V96.9z M976,130.9H944
	V98.8H976V130.9z M976,164.9H944v-32H976V164.9z M976,198.8H944v-32H976V198.8z M976,232.8H944v-32H976V232.8z M976,266.8H944v-32
	H976V266.8z M976,300.7H944v-32H976V300.7z M976,334.7H944v-32H976V334.7z M976,368.6H944v-32H976V368.6z M976,402.7H944v-32.1H976
	V402.7z M976,436.7H944v-32H976V436.7z M976,470.6H944v-32H976V470.6z M976,504.6H944v-32H976V504.6z M976,538.5H944v-32H976V538.5z
	 M976,572.5H944v-32H976V572.5z M976,606.4H944v-32H976V606.4z M976,640.4H944v-32H976V640.4z M976,674.5H944v-32.1H976V674.5z
	 M976,708.4H944v-32H976V708.4z M976,742.4H944v-32H976V742.4z M976,776.3H944v-32H976V776.3z M976,810.3H944v-32H976V810.3z
	 M976,844.3H944v-32H976V844.3z M976,878.2H944v-32H976V878.2z M976,912.2H944v-32H976V912.2z M976,946.2H944v-32.1H976V946.2z
	 M976,980.2H944v-32H976V980.2z M976,1014.1H944v-32H976V1014.1z M976,1048.1H944v-32H976V1048.1z M944,1082.1v-32H976v32H944z
	 M1009.9,1082.1H978v-32h31.9V1082.1z M1009.9,1048.1H978v-32h31.9V1048.1z M1009.9,1014.1H978v-32h31.9V1014.1z M1009.9,980.2H978
	v-32h31.9V980.2z M1009.9,946.2H978v-32.1h31.9V946.2z M1009.9,912.2H978v-32h31.9V912.2z M1009.9,878.2H978v-32h31.9V878.2z
	 M1009.9,844.3H978v-32h31.9V844.3z M1009.9,810.3H978v-32h31.9V810.3z M1009.9,776.3H978v-32h31.9V776.3z M1009.9,742.4H978v-32
	h31.9V742.4z M1009.9,708.4H978v-32h31.9V708.4z M1009.9,674.5H978v-32.1h31.9V674.5z M1009.9,640.4H978v-32h31.9V640.4z
	 M1009.9,606.4H978v-32h31.9V606.4z M1009.9,572.5H978v-32h31.9V572.5z M1009.9,538.5H978v-32h31.9V538.5z M1009.9,504.6H978v-32
	h31.9V504.6z M1009.9,470.6H978v-32h31.9V470.6z M1009.9,436.7H978v-32h31.9V436.7z M1009.9,402.7H978v-32.1h31.9V402.7z
	 M1009.9,368.6H978v-32h31.9V368.6z M1009.9,334.7H978v-32h31.9V334.7z M1009.9,300.7H978v-32h31.9V300.7z M1009.9,266.8H978v-32
	h31.9V266.8z M1009.9,232.8H978v-32h31.9V232.8z M1009.9,198.8H978v-32h31.9V198.8z M1009.9,164.9H978v-32h31.9V164.9z
	 M1009.9,130.9H978V98.8h31.9V130.9z M1009.9,96.9H978v-32h31.9V96.9z M1009.9,62.9H978v-32h31.9V62.9z M1009.9,29H978v-32h31.9V29z
	 M1043.9,1082.1h-32v-32h32V1082.1z M1043.9,1048.1h-32v-32h32V1048.1z M1043.9,1014.1h-32v-32h32V1014.1z M1043.9,980.2h-32v-32h32
	V980.2z M1043.9,946.2h-32v-32.1h32V946.2z M1043.9,912.2h-32v-32h32V912.2z M1043.9,878.2h-32v-32h32V878.2z M1043.9,844.3h-32v-32
	h32V844.3z M1043.9,810.3h-32v-32h32V810.3z M1043.9,776.3h-32v-32h32V776.3z M1043.9,742.4h-32v-32h32V742.4z M1043.9,708.4h-32
	v-32h32V708.4z M1043.9,674.5h-32v-32.1h32V674.5z M1043.9,640.4h-32v-32h32V640.4z M1043.9,606.4h-32v-32h32V606.4z M1043.9,572.5
	h-32v-32h32V572.5z M1043.9,538.5h-32v-32h32V538.5z M1043.9,504.6h-32v-32h32V504.6z M1043.9,470.6h-32v-32h32V470.6z
	 M1043.9,436.7h-32v-32h32V436.7z M1043.9,402.7h-32v-32.1h32V402.7z M1043.9,368.6h-32v-32h32V368.6z M1043.9,334.7h-32v-32h32
	V334.7z M1043.9,300.7h-32v-32h32V300.7z M1043.9,266.8h-32v-32h32V266.8z M1043.9,232.8h-32v-32h32V232.8z M1043.9,198.8h-32v-32
	h32V198.8z M1043.9,164.9h-32v-32h32V164.9z M1043.9,130.9h-32V98.8h32V130.9z M1043.9,96.9h-32v-32h32V96.9z M1043.9,62.9h-32v-32
	h32V62.9z M1043.9,29h-32v-32h32V29z M1077.9,1082.1h-32.1v-32h32.1V1082.1z M1077.9,1048.1h-32.1v-32h32.1V1048.1z M1077.9,1014.1
	h-32.1v-32h32.1V1014.1z M1077.9,980.2h-32.1v-32h32.1V980.2z M1077.9,946.2h-32.1v-32.1h32.1V946.2z M1077.9,912.2h-32.1v-32h32.1
	V912.2z M1077.9,878.2h-32.1v-32h32.1V878.2z M1077.9,844.3h-32.1v-32h32.1V844.3z M1077.9,810.3h-32.1v-32h32.1V810.3z
	 M1077.9,776.3h-32.1v-32h32.1V776.3z M1077.9,742.4h-32.1v-32h32.1V742.4z M1077.9,708.4h-32.1v-32h32.1V708.4z M1077.9,674.5
	h-32.1v-32.1h32.1V674.5z M1077.9,640.4h-32.1v-32h32.1V640.4z M1077.9,606.4h-32.1v-32h32.1V606.4z M1077.9,572.5h-32.1v-32h32.1
	V572.5z M1077.9,538.5h-32.1v-32h32.1V538.5z M1077.9,504.6h-32.1v-32h32.1V504.6z M1077.9,470.6h-32.1v-32h32.1V470.6z
	 M1077.9,436.7h-32.1v-32h32.1V436.7z M1077.9,402.7h-32.1v-32.1h32.1V402.7z M1077.9,368.6h-32.1v-32h32.1V368.6z M1077.9,334.7
	h-32.1v-32h32.1V334.7z M1077.9,300.7h-32.1v-32h32.1V300.7z M1077.9,266.8h-32.1v-32h32.1V266.8z M1077.9,232.8h-32.1v-32h32.1
	V232.8z M1077.9,198.8h-32.1v-32h32.1V198.8z M1077.9,164.9h-32.1v-32h32.1V164.9z M1077.9,130.9h-32.1V98.8h32.1V130.9z
	 M1077.9,96.9h-32.1v-32h32.1V96.9z M1077.9,62.9h-32.1v-32h32.1V62.9z M1077.9,29h-32.1v-32h32.1V29z M1111.9,1082.1h-32v-32h32
	V1082.1z M1111.9,1048.1h-32v-32h32V1048.1z M1111.9,1014.1h-32v-32h32V1014.1z M1111.9,980.2h-32v-32h32V980.2z M1111.9,946.2h-32
	v-32.1h32V946.2z M1111.9,912.2h-32v-32h32V912.2z M1111.9,878.2h-32v-32h32V878.2z M1111.9,844.3h-32v-32h32V844.3z M1111.9,810.3
	h-32v-32h32V810.3z M1111.9,776.3h-32v-32h32V776.3z M1111.9,742.4h-32v-32h32V742.4z M1111.9,708.4h-32v-32h32V708.4z
	 M1111.9,674.5h-32v-32.1h32V674.5z M1111.9,640.4h-32v-32h32V640.4z M1111.9,606.4h-32v-32h32V606.4z M1111.9,572.5h-32v-32h32
	V572.5z M1111.9,538.5h-32v-32h32V538.5z M1111.9,504.6h-32v-32h32V504.6z M1111.9,470.6h-32v-32h32V470.6z M1111.9,436.7h-32v-32
	h32V436.7z M1111.9,402.7h-32v-32.1h32V402.7z M1111.9,368.6h-32v-32h32V368.6z M1111.9,334.7h-32v-32h32V334.7z M1111.9,300.7h-32
	v-32h32V300.7z M1111.9,266.8h-32v-32h32V266.8z M1111.9,232.8h-32v-32h32V232.8z M1111.9,198.8h-32v-32h32V198.8z M1111.9,164.9
	h-32v-32h32V164.9z M1111.9,130.9h-32V98.8h32V130.9z M1111.9,96.9h-32v-32h32V96.9z M1111.9,62.9h-32v-32h32V62.9z M1111.9,29h-32
	v-32h32V29z M1145.8,1082.1h-32v-32h32V1082.1z M1145.8,1048.1h-32v-32h32V1048.1z M1145.8,1014.1h-32v-32h32V1014.1z M1145.8,980.2
	h-32v-32h32V980.2z M1145.8,946.2h-32v-32.1h32V946.2z M1145.8,912.2h-32v-32h32V912.2z M1145.8,878.2h-32v-32h32V878.2z
	 M1145.8,844.3h-32v-32h32V844.3z M1145.8,810.3h-32v-32h32V810.3z M1145.8,776.3h-32v-32h32V776.3z M1145.8,742.4h-32v-32h32V742.4
	z M1145.8,708.4h-32v-32h32V708.4z M1145.8,674.5h-32v-32.1h32V674.5z M1145.8,640.4h-32v-32h32V640.4z M1145.8,606.4h-32v-32h32
	V606.4z M1145.8,572.5h-32v-32h32V572.5z M1145.8,538.5h-32v-32h32V538.5z M1145.8,504.6h-32v-32h32V504.6z M1145.8,470.6h-32v-32
	h32V470.6z M1145.8,436.7h-32v-32h32V436.7z M1145.8,402.7h-32v-32.1h32V402.7z M1145.8,368.6h-32v-32h32V368.6z M1145.8,334.7h-32
	v-32h32V334.7z M1145.8,300.7h-32v-32h32V300.7z M1145.8,266.8h-32v-32h32V266.8z M1145.8,232.8h-32v-32h32V232.8z M1145.8,198.8
	h-32v-32h32V198.8z M1145.8,164.9h-32v-32h32V164.9z M1145.8,130.9h-32V98.8h32V130.9z M1145.8,96.9h-32v-32h32V96.9z M1145.8,62.9
	h-32v-32h32V62.9z M1145.8,29h-32v-32h32V29z M1179.8,1082.1h-32v-32h32V1082.1z M1179.8,1048.1h-32v-32h32V1048.1z M1179.8,1014.1
	h-32v-32h32V1014.1z M1179.8,980.2h-32v-32h32V980.2z M1179.8,946.2h-32v-32.1h32V946.2z M1179.8,912.2h-32v-32h32V912.2z
	 M1179.8,878.2h-32v-32h32V878.2z M1179.8,844.3h-32v-32h32V844.3z M1179.8,810.3h-32v-32h32V810.3z M1179.8,776.3h-32v-32h32V776.3
	z M1179.8,742.4h-32v-32h32V742.4z M1179.8,708.4h-32v-32h32V708.4z M1179.8,674.5h-32v-32.1h32V674.5z M1179.8,640.4h-32v-32h32
	V640.4z M1179.8,606.4h-32v-32h32V606.4z M1179.8,572.5h-32v-32h32V572.5z M1179.8,538.5h-32v-32h32V538.5z M1179.8,504.6h-32v-32
	h32V504.6z M1179.8,470.6h-32v-32h32V470.6z M1179.8,436.7h-32v-32h32V436.7z M1179.8,402.7h-32v-32.1h32V402.7z M1179.8,368.6h-32
	v-32h32V368.6z M1179.8,334.7h-32v-32h32V334.7z M1179.8,300.7h-32v-32h32V300.7z M1179.8,266.8h-32v-32h32V266.8z M1179.8,232.8
	h-32v-32h32V232.8z M1179.8,198.8h-32v-32h32V198.8z M1179.8,164.9h-32v-32h32V164.9z M1179.8,130.9h-32V98.8h32V130.9z
	 M1179.8,96.9h-32v-32h32V96.9z M1179.8,62.9h-32v-32h32V62.9z M1179.8,29h-32v-32h32V29z M1213.8,1082.1h-32v-32h32V1082.1z
	 M1213.8,1048.1h-32v-32h32V1048.1z M1213.8,1014.1h-32v-32h32V1014.1z M1213.8,980.2h-32v-32h32V980.2z M1213.8,946.2h-32v-32.1h32
	V946.2z M1213.8,912.2h-32v-32h32V912.2z M1213.8,878.2h-32v-32h32V878.2z M1213.8,844.3h-32v-32h32V844.3z M1213.8,810.3h-32v-32
	h32V810.3z M1213.8,776.3h-32v-32h32V776.3z M1213.8,742.4h-32v-32h32V742.4z M1213.8,708.4h-32v-32h32V708.4z M1213.8,674.5h-32
	v-32.1h32V674.5z M1213.8,640.4h-32v-32h32V640.4z M1213.8,606.4h-32v-32h32V606.4z M1213.8,572.5h-32v-32h32V572.5z M1213.8,538.5
	h-32v-32h32V538.5z M1213.8,504.6h-32v-32h32V504.6z M1213.8,470.6h-32v-32h32V470.6z M1213.8,436.7h-32v-32h32V436.7z
	 M1213.8,402.7h-32v-32.1h32V402.7z M1213.8,368.6h-32v-32h32V368.6z M1213.8,334.7h-32v-32h32V334.7z M1213.8,300.7h-32v-32h32
	V300.7z M1213.8,266.8h-32v-32h32V266.8z M1213.8,232.8h-32v-32h32V232.8z M1213.8,198.8h-32v-32h32V198.8z M1213.8,164.9h-32v-32
	h32V164.9z M1213.8,130.9h-32V98.8h32V130.9z M1213.8,96.9h-32v-32h32V96.9z M1213.8,62.9h-32v-32h32V62.9z M1213.8,29h-32v-32h32
	V29z M1247.7,1082.1h-32v-32h32V1082.1z M1247.7,1048.1h-32v-32h32V1048.1z M1247.7,1014.1h-32v-32h32V1014.1z M1247.7,980.2h-32
	v-32h32V980.2z M1247.7,946.2h-32v-32.1h32V946.2z M1247.7,912.2h-32v-32h32V912.2z M1247.7,878.2h-32v-32h32V878.2z M1247.7,844.3
	h-32v-32h32V844.3z M1247.7,810.3h-32v-32h32V810.3z M1247.7,776.3h-32v-32h32V776.3z M1247.7,742.4h-32v-32h32V742.4z
	 M1247.7,708.4h-32v-32h32V708.4z M1247.7,674.5h-32v-32.1h32V674.5z M1247.7,640.4h-32v-32h32V640.4z M1247.7,606.4h-32v-32h32
	V606.4z M1247.7,572.5h-32v-32h32V572.5z M1247.7,538.5h-32v-32h32V538.5z M1247.7,504.6h-32v-32h32V504.6z M1247.7,470.6h-32v-32
	h32V470.6z M1247.7,436.7h-32v-32h32V436.7z M1247.7,402.7h-32v-32.1h32V402.7z M1247.7,368.6h-32v-32h32V368.6z M1247.7,334.7h-32
	v-32h32V334.7z M1247.7,300.7h-32v-32h32V300.7z M1247.7,266.8h-32v-32h32V266.8z M1247.7,232.8h-32v-32h32V232.8z M1247.7,198.8
	h-32v-32h32V198.8z M1247.7,164.9h-32v-32h32V164.9z M1247.7,130.9h-32V98.8h32V130.9z M1247.7,96.9h-32v-32h32V96.9z M1247.7,62.9
	h-32v-32h32V62.9z M1247.7,29h-32v-32h32V29z M1281.7,1082.1h-32v-32h32V1082.1z M1281.7,1048.1h-32v-32h32V1048.1z M1281.7,1014.1
	h-32v-32h32V1014.1z M1281.7,980.2h-32v-32h32V980.2z M1281.7,946.2h-32v-32.1h32V946.2z M1281.7,912.2h-32v-32h32V912.2z
	 M1281.7,878.2h-32v-32h32V878.2z M1281.7,844.3h-32v-32h32V844.3z M1281.7,810.3h-32v-32h32V810.3z M1281.7,776.3h-32v-32h32V776.3
	z M1281.7,742.4h-32v-32h32V742.4z M1281.7,708.4h-32v-32h32V708.4z M1281.7,674.5h-32v-32.1h32V674.5z M1281.7,640.4h-32v-32h32
	V640.4z M1281.7,606.4h-32v-32h32V606.4z M1281.7,572.5h-32v-32h32V572.5z M1281.7,538.5h-32v-32h32V538.5z M1281.7,504.6h-32v-32
	h32V504.6z M1281.7,470.6h-32v-32h32V470.6z M1281.7,436.7h-32v-32h32V436.7z M1281.7,402.7h-32v-32.1h32V402.7z M1281.7,368.6h-32
	v-32h32V368.6z M1281.7,334.7h-32v-32h32V334.7z M1281.7,300.7h-32v-32h32V300.7z M1281.7,266.8h-32v-32h32V266.8z M1281.7,232.8
	h-32v-32h32V232.8z M1281.7,198.8h-32v-32h32V198.8z M1281.7,164.9h-32v-32h32V164.9z M1281.7,130.9h-32V98.8h32V130.9z
	 M1281.7,96.9h-32v-32h32V96.9z M1281.7,62.9h-32v-32h32V62.9z M1281.7,29h-32v-32h32V29z M1315.6,1082.1h-32v-32h32V1082.1z
	 M1315.6,1048.1h-32v-32h32V1048.1z M1315.6,1014.1h-32v-32h32V1014.1z M1315.6,980.2h-32v-32h32V980.2z M1315.6,946.2h-32v-32.1h32
	V946.2z M1315.6,912.2h-32v-32h32V912.2z M1315.6,878.2h-32v-32h32V878.2z M1315.6,844.3h-32v-32h32V844.3z M1315.6,810.3h-32v-32
	h32V810.3z M1315.6,776.3h-32v-32h32V776.3z M1315.6,742.4h-32v-32h32V742.4z M1315.6,708.4h-32v-32h32V708.4z M1315.6,674.5h-32
	v-32.1h32V674.5z M1315.6,640.4h-32v-32h32V640.4z M1315.6,606.4h-32v-32h32V606.4z M1315.6,572.5h-32v-32h32V572.5z M1315.6,538.5
	h-32v-32h32V538.5z M1315.6,504.6h-32v-32h32V504.6z M1315.6,470.6h-32v-32h32V470.6z M1315.6,436.7h-32v-32h32V436.7z
	 M1315.6,402.7h-32v-32.1h32V402.7z M1315.6,368.6h-32v-32h32V368.6z M1315.6,334.7h-32v-32h32V334.7z M1315.6,300.7h-32v-32h32
	V300.7z M1315.6,266.8h-32v-32h32V266.8z M1315.6,232.8h-32v-32h32V232.8z M1315.6,198.8h-32v-32h32V198.8z M1315.6,164.9h-32v-32
	h32V164.9z M1315.6,130.9h-32V98.8h32V130.9z M1315.6,96.9h-32v-32h32V96.9z M1315.6,62.9h-32v-32h32V62.9z M1315.6,29h-32v-32h32
	V29z M1349.7,1082.1h-32.1v-32h32.1V1082.1z M1349.7,1048.1h-32.1v-32h32.1V1048.1z M1349.7,1014.1h-32.1v-32h32.1V1014.1z
	 M1349.7,980.2h-32.1v-32h32.1V980.2z M1349.7,946.2h-32.1v-32.1h32.1V946.2z M1349.7,912.2h-32.1v-32h32.1V912.2z M1349.7,878.2
	h-32.1v-32h32.1V878.2z M1349.7,844.3h-32.1v-32h32.1V844.3z M1349.7,810.3h-32.1v-32h32.1V810.3z M1349.7,776.3h-32.1v-32h32.1
	V776.3z M1349.7,742.4h-32.1v-32h32.1V742.4z M1349.7,708.4h-32.1v-32h32.1V708.4z M1349.7,674.5h-32.1v-32.1h32.1V674.5z
	 M1349.7,640.4h-32.1v-32h32.1V640.4z M1349.7,606.4h-32.1v-32h32.1V606.4z M1349.7,572.5h-32.1v-32h32.1V572.5z M1349.7,538.5
	h-32.1v-32h32.1V538.5z M1349.7,504.6h-32.1v-32h32.1V504.6z M1349.7,470.6h-32.1v-32h32.1V470.6z M1349.7,436.7h-32.1v-32h32.1
	V436.7z M1349.7,402.7h-32.1v-32.1h32.1V402.7z M1349.7,368.6h-32.1v-32h32.1V368.6z M1349.7,334.7h-32.1v-32h32.1V334.7z
	 M1349.7,300.7h-32.1v-32h32.1V300.7z M1349.7,266.8h-32.1v-32h32.1V266.8z M1349.7,232.8h-32.1v-32h32.1V232.8z M1349.7,198.8
	h-32.1v-32h32.1V198.8z M1349.7,164.9h-32.1v-32h32.1V164.9z M1349.7,130.9h-32.1V98.8h32.1V130.9z M1349.7,96.9h-32.1v-32h32.1
	V96.9z M1349.7,62.9h-32.1v-32h32.1V62.9z M1349.7,29h-32.1v-32h32.1V29z M1383.7,1082.1h-32v-32h32V1082.1z M1383.7,1048.1h-32v-32
	h32V1048.1z M1383.7,1014.1h-32v-32h32V1014.1z M1383.7,980.2h-32v-32h32V980.2z M1383.7,946.2h-32v-32.1h32V946.2z M1383.7,912.2
	h-32v-32h32V912.2z M1383.7,878.2h-32v-32h32V878.2z M1383.7,844.3h-32v-32h32V844.3z M1383.7,810.3h-32v-32h32V810.3z
	 M1383.7,776.3h-32v-32h32V776.3z M1383.7,742.4h-32v-32h32V742.4z M1383.7,708.4h-32v-32h32V708.4z M1383.7,674.5h-32v-32.1h32
	V674.5z M1383.7,640.4h-32v-32h32V640.4z M1383.7,606.4h-32v-32h32V606.4z M1383.7,572.5h-32v-32h32V572.5z M1383.7,538.5h-32v-32
	h32V538.5z M1383.7,504.6h-32v-32h32V504.6z M1383.7,470.6h-32v-32h32V470.6z M1383.7,436.7h-32v-32h32V436.7z M1383.7,402.7h-32
	v-32.1h32V402.7z M1383.7,368.6h-32v-32h32V368.6z M1383.7,334.7h-32v-32h32V334.7z M1383.7,300.7h-32v-32h32V300.7z M1383.7,266.8
	h-32v-32h32V266.8z M1383.7,232.8h-32v-32h32V232.8z M1383.7,198.8h-32v-32h32V198.8z M1383.7,164.9h-32v-32h32V164.9z
	 M1383.7,130.9h-32V98.8h32V130.9z M1383.7,96.9h-32v-32h32V96.9z M1383.7,62.9h-32v-32h32V62.9z M1383.7,29h-32v-32h32V29z
	 M1417.6,1082.1h-32v-32h32V1082.1z M1417.6,1048.1h-32v-32h32V1048.1z M1417.6,1014.1h-32v-32h32V1014.1z M1417.6,980.2h-32v-32h32
	V980.2z M1417.6,946.2h-32v-32.1h32V946.2z M1417.6,912.2h-32v-32h32V912.2z M1417.6,878.2h-32v-32h32V878.2z M1417.6,844.3h-32v-32
	h32V844.3z M1417.6,810.3h-32v-32h32V810.3z M1417.6,776.3h-32v-32h32V776.3z M1417.6,742.4h-32v-32h32V742.4z M1417.6,708.4h-32
	v-32h32V708.4z M1417.6,674.5h-32v-32.1h32V674.5z M1417.6,640.4h-32v-32h32V640.4z M1417.6,606.4h-32v-32h32V606.4z M1417.6,572.5
	h-32v-32h32V572.5z M1417.6,538.5h-32v-32h32V538.5z M1417.6,504.6h-32v-32h32V504.6z M1417.6,470.6h-32v-32h32V470.6z
	 M1417.6,436.7h-32v-32h32V436.7z M1417.6,402.7h-32v-32.1h32V402.7z M1417.6,368.6h-32v-32h32V368.6z M1417.6,334.7h-32v-32h32
	V334.7z M1417.6,300.7h-32v-32h32V300.7z M1417.6,266.8h-32v-32h32V266.8z M1417.6,232.8h-32v-32h32V232.8z M1417.6,198.8h-32v-32
	h32V198.8z M1417.6,164.9h-32v-32h32V164.9z M1417.6,130.9h-32V98.8h32V130.9z M1417.6,96.9h-32v-32h32V96.9z M1417.6,62.9h-32v-32
	h32V62.9z M1417.6,29h-32v-32h32V29z M1451.6,1082.1h-32v-32h32V1082.1z M1451.6,1048.1h-32v-32h32V1048.1z M1451.6,1014.1h-32v-32
	h32V1014.1z M1451.6,980.2h-32v-32h32V980.2z M1451.6,946.2h-32v-32.1h32V946.2z M1451.6,912.2h-32v-32h32V912.2z M1451.6,878.2h-32
	v-32h32V878.2z M1451.6,844.3h-32v-32h32V844.3z M1451.6,810.3h-32v-32h32V810.3z M1451.6,776.3h-32v-32h32V776.3z M1451.6,742.4
	h-32v-32h32V742.4z M1451.6,708.4h-32v-32h32V708.4z M1451.6,674.5h-32v-32.1h32V674.5z M1451.6,640.4h-32v-32h32V640.4z
	 M1451.6,606.4h-32v-32h32V606.4z M1451.6,572.5h-32v-32h32V572.5z M1451.6,538.5h-32v-32h32V538.5z M1451.6,504.6h-32v-32h32V504.6
	z M1451.6,470.6h-32v-32h32V470.6z M1451.6,436.7h-32v-32h32V436.7z M1451.6,402.7h-32v-32.1h32V402.7z M1451.6,368.6h-32v-32h32
	V368.6z M1451.6,334.7h-32v-32h32V334.7z M1451.6,300.7h-32v-32h32V300.7z M1451.6,266.8h-32v-32h32V266.8z M1451.6,232.8h-32v-32
	h32V232.8z M1451.6,198.8h-32v-32h32V198.8z M1451.6,164.9h-32v-32h32V164.9z M1451.6,130.9h-32V98.8h32V130.9z M1451.6,96.9h-32
	v-32h32V96.9z M1451.6,62.9h-32v-32h32V62.9z M1451.6,29h-32v-32h32V29z M1485.5,1082.1h-32v-32h32V1082.1z M1485.5,1048.1h-32v-32
	h32V1048.1z M1485.5,1014.1h-32v-32h32V1014.1z M1485.5,980.2h-32v-32h32V980.2z M1485.5,946.2h-32v-32.1h32V946.2z M1485.5,912.2
	h-32v-32h32V912.2z M1485.5,878.2h-32v-32h32V878.2z M1485.5,844.3h-32v-32h32V844.3z M1485.5,810.3h-32v-32h32V810.3z
	 M1485.5,776.3h-32v-32h32V776.3z M1485.5,742.4h-32v-32h32V742.4z M1485.5,708.4h-32v-32h32V708.4z M1485.5,674.5h-32v-32.1h32
	V674.5z M1485.5,640.4h-32v-32h32V640.4z M1485.5,606.4h-32v-32h32V606.4z M1485.5,572.5h-32v-32h32V572.5z M1485.5,538.5h-32v-32
	h32V538.5z M1485.5,504.6h-32v-32h32V504.6z M1485.5,470.6h-32v-32h32V470.6z M1485.5,436.7h-32v-32h32V436.7z M1485.5,402.7h-32
	v-32.1h32V402.7z M1485.5,368.6h-32v-32h32V368.6z M1485.5,334.7h-32v-32h32V334.7z M1485.5,300.7h-32v-32h32V300.7z M1485.5,266.8
	h-32v-32h32V266.8z M1485.5,232.8h-32v-32h32V232.8z M1485.5,198.8h-32v-32h32V198.8z M1485.5,164.9h-32v-32h32V164.9z
	 M1485.5,130.9h-32V98.8h32V130.9z M1485.5,96.9h-32v-32h32V96.9z M1485.5,62.9h-32v-32h32V62.9z M1485.5,29h-32v-32h32V29z
	 M1519.5,1082.1h-32v-32h32V1082.1z M1519.5,1048.1h-32v-32h32V1048.1z M1519.5,1014.1h-32v-32h32V1014.1z M1519.5,980.2h-32v-32h32
	V980.2z M1519.5,946.2h-32v-32.1h32V946.2z M1519.5,912.2h-32v-32h32V912.2z M1519.5,878.2h-32v-32h32V878.2z M1519.5,844.3h-32v-32
	h32V844.3z M1519.5,810.3h-32v-32h32V810.3z M1519.5,776.3h-32v-32h32V776.3z M1519.5,742.4h-32v-32h32V742.4z M1519.5,708.4h-32
	v-32h32V708.4z M1519.5,674.5h-32v-32.1h32V674.5z M1519.5,640.4h-32v-32h32V640.4z M1519.5,606.4h-32v-32h32V606.4z M1519.5,572.5
	h-32v-32h32V572.5z M1519.5,538.5h-32v-32h32V538.5z M1519.5,504.6h-32v-32h32V504.6z M1519.5,470.6h-32v-32h32V470.6z
	 M1519.5,436.7h-32v-32h32V436.7z M1519.5,402.7h-32v-32.1h32V402.7z M1519.5,368.6h-32v-32h32V368.6z M1519.5,334.7h-32v-32h32
	V334.7z M1519.5,300.7h-32v-32h32V300.7z M1519.5,266.8h-32v-32h32V266.8z M1519.5,232.8h-32v-32h32V232.8z M1519.5,198.8h-32v-32
	h32V198.8z M1519.5,164.9h-32v-32h32V164.9z M1519.5,130.9h-32V98.8h32V130.9z M1519.5,96.9h-32v-32h32V96.9z M1519.5,62.9h-32v-32
	h32V62.9z M1519.5,29h-32v-32h32V29z M1553.4,1082.1h-32v-32h32V1082.1z M1553.4,1048.1h-32v-32h32V1048.1z M1553.4,1014.1h-32v-32
	h32V1014.1z M1553.4,980.2h-32v-32h32V980.2z M1553.4,946.2h-32v-32.1h32V946.2z M1553.4,912.2h-32v-32h32V912.2z M1553.4,878.2h-32
	v-32h32V878.2z M1553.4,844.3h-32v-32h32V844.3z M1553.4,810.3h-32v-32h32V810.3z M1553.4,776.3h-32v-32h32V776.3z M1553.4,742.4
	h-32v-32h32V742.4z M1553.4,708.4h-32v-32h32V708.4z M1553.4,674.5h-32v-32.1h32V674.5z M1553.4,640.4h-32v-32h32V640.4z
	 M1553.4,606.4h-32v-32h32V606.4z M1553.4,572.5h-32v-32h32V572.5z M1553.4,538.5h-32v-32h32V538.5z M1553.4,504.6h-32v-32h32V504.6
	z M1553.4,470.6h-32v-32h32V470.6z M1553.4,436.7h-32v-32h32V436.7z M1553.4,402.7h-32v-32.1h32V402.7z M1553.4,368.6h-32v-32h32
	V368.6z M1553.4,334.7h-32v-32h32V334.7z M1553.4,300.7h-32v-32h32V300.7z M1553.4,266.8h-32v-32h32V266.8z M1553.4,232.8h-32v-32
	h32V232.8z M1553.4,198.8h-32v-32h32V198.8z M1553.4,164.9h-32v-32h32V164.9z M1553.4,130.9h-32V98.8h32V130.9z M1553.4,96.9h-32
	v-32h32V96.9z M1553.4,62.9h-32v-32h32V62.9z M1553.4,29h-32v-32h32V29z M1587.4,1082.1h-32v-32h32V1082.1z M1587.4,1048.1h-32v-32
	h32V1048.1z M1587.4,1014.1h-32v-32h32V1014.1z M1587.4,980.2h-32v-32h32V980.2z M1587.4,946.2h-32v-32.1h32V946.2z M1587.4,912.2
	h-32v-32h32V912.2z M1587.4,878.2h-32v-32h32V878.2z M1587.4,844.3h-32v-32h32V844.3z M1587.4,810.3h-32v-32h32V810.3z
	 M1587.4,776.3h-32v-32h32V776.3z M1587.4,742.4h-32v-32h32V742.4z M1587.4,708.4h-32v-32h32V708.4z M1587.4,674.5h-32v-32.1h32
	V674.5z M1587.4,640.4h-32v-32h32V640.4z M1587.4,606.4h-32v-32h32V606.4z M1587.4,572.5h-32v-32h32V572.5z M1587.4,538.5h-32v-32
	h32V538.5z M1587.4,504.6h-32v-32h32V504.6z M1587.4,470.6h-32v-32h32V470.6z M1587.4,436.7h-32v-32h32V436.7z M1587.4,402.7h-32
	v-32.1h32V402.7z M1587.4,368.6h-32v-32h32V368.6z M1587.4,334.7h-32v-32h32V334.7z M1587.4,300.7h-32v-32h32V300.7z M1587.4,266.8
	h-32v-32h32V266.8z M1587.4,232.8h-32v-32h32V232.8z M1587.4,198.8h-32v-32h32V198.8z M1587.4,164.9h-32v-32h32V164.9z
	 M1587.4,130.9h-32V98.8h32V130.9z M1587.4,96.9h-32v-32h32V96.9z M1587.4,62.9h-32v-32h32V62.9z M1587.4,29h-32v-32h32V29z
	 M1621.5,1082.1h-32.1v-32h32.1V1082.1z M1621.5,1048.1h-32.1v-32h32.1V1048.1z M1621.5,1014.1h-32.1v-32h32.1V1014.1z
	 M1621.5,980.2h-32.1v-32h32.1V980.2z M1621.5,946.2h-32.1v-32.1h32.1V946.2z M1621.5,912.2h-32.1v-32h32.1V912.2z M1621.5,878.2
	h-32.1v-32h32.1V878.2z M1621.5,844.3h-32.1v-32h32.1V844.3z M1621.5,810.3h-32.1v-32h32.1V810.3z M1621.5,776.3h-32.1v-32h32.1
	V776.3z M1621.5,742.4h-32.1v-32h32.1V742.4z M1621.5,708.4h-32.1v-32h32.1V708.4z M1621.5,674.5h-32.1v-32.1h32.1V674.5z
	 M1621.5,640.4h-32.1v-32h32.1V640.4z M1621.5,606.4h-32.1v-32h32.1V606.4z M1621.5,572.5h-32.1v-32h32.1V572.5z M1621.5,538.5
	h-32.1v-32h32.1V538.5z M1621.5,504.6h-32.1v-32h32.1V504.6z M1621.5,470.6h-32.1v-32h32.1V470.6z M1621.5,436.7h-32.1v-32h32.1
	V436.7z M1621.5,402.7h-32.1v-32.1h32.1V402.7z M1621.5,368.6h-32.1v-32h32.1V368.6z M1621.5,334.7h-32.1v-32h32.1V334.7z
	 M1621.5,300.7h-32.1v-32h32.1V300.7z M1621.5,266.8h-32.1v-32h32.1V266.8z M1621.5,232.8h-32.1v-32h32.1V232.8z M1621.5,198.8
	h-32.1v-32h32.1V198.8z M1621.5,164.9h-32.1v-32h32.1V164.9z M1621.5,130.9h-32.1V98.8h32.1V130.9z M1621.5,96.9h-32.1v-32h32.1
	V96.9z M1621.5,62.9h-32.1v-32h32.1V62.9z M1621.5,29h-32.1v-32h32.1V29z M1655.4,1082.1h-32v-32h32V1082.1z M1655.4,1048.1h-32v-32
	h32V1048.1z M1655.4,1014.1h-32v-32h32V1014.1z M1655.4,980.2h-32v-32h32V980.2z M1655.4,946.2h-32v-32.1h32V946.2z M1655.4,912.2
	h-32v-32h32V912.2z M1655.4,878.2h-32v-32h32V878.2z M1655.4,844.3h-32v-32h32V844.3z M1655.4,810.3h-32v-32h32V810.3z
	 M1655.4,776.3h-32v-32h32V776.3z M1655.4,742.4h-32v-32h32V742.4z M1655.4,708.4h-32v-32h32V708.4z M1655.4,674.5h-32v-32.1h32
	V674.5z M1655.4,640.4h-32v-32h32V640.4z M1655.4,606.4h-32v-32h32V606.4z M1655.4,572.5h-32v-32h32V572.5z M1655.4,538.5h-32v-32
	h32V538.5z M1655.4,504.6h-32v-32h32V504.6z M1655.4,470.6h-32v-32h32V470.6z M1655.4,436.7h-32v-32h32V436.7z M1655.4,402.7h-32
	v-32.1h32V402.7z M1655.4,368.6h-32v-32h32V368.6z M1655.4,334.7h-32v-32h32V334.7z M1655.4,300.7h-32v-32h32V300.7z M1655.4,266.8
	h-32v-32h32V266.8z M1655.4,232.8h-32v-32h32V232.8z M1655.4,198.8h-32v-32h32V198.8z M1655.4,164.9h-32v-32h32V164.9z
	 M1655.4,130.9h-32V98.8h32V130.9z M1655.4,96.9h-32v-32h32V96.9z M1655.4,62.9h-32v-32h32V62.9z M1655.4,29h-32v-32h32V29z
	 M1689.4,1082.1h-32v-32h32V1082.1z M1689.4,1048.1h-32v-32h32V1048.1z M1689.4,1014.1h-32v-32h32V1014.1z M1689.4,980.2h-32v-32h32
	V980.2z M1689.4,946.2h-32v-32.1h32V946.2z M1689.4,912.2h-32v-32h32V912.2z M1689.4,878.2h-32v-32h32V878.2z M1689.4,844.3h-32v-32
	h32V844.3z M1689.4,810.3h-32v-32h32V810.3z M1689.4,776.3h-32v-32h32V776.3z M1689.4,742.4h-32v-32h32V742.4z M1689.4,708.4h-32
	v-32h32V708.4z M1689.4,674.5h-32v-32.1h32V674.5z M1689.4,640.4h-32v-32h32V640.4z M1689.4,606.4h-32v-32h32V606.4z M1689.4,572.5
	h-32v-32h32V572.5z M1689.4,538.5h-32v-32h32V538.5z M1689.4,504.6h-32v-32h32V504.6z M1689.4,470.6h-32v-32h32V470.6z
	 M1689.4,436.7h-32v-32h32V436.7z M1689.4,402.7h-32v-32.1h32V402.7z M1689.4,368.6h-32v-32h32V368.6z M1689.4,334.7h-32v-32h32
	V334.7z M1689.4,300.7h-32v-32h32V300.7z M1689.4,266.8h-32v-32h32V266.8z M1689.4,232.8h-32v-32h32V232.8z M1689.4,198.8h-32v-32
	h32V198.8z M1689.4,164.9h-32v-32h32V164.9z M1689.4,130.9h-32V98.8h32V130.9z M1689.4,96.9h-32v-32h32V96.9z M1689.4,62.9h-32v-32
	h32V62.9z M1689.4,29h-32v-32h32V29z M1723.3,1082.1h-32v-32h32V1082.1z M1723.3,1048.1h-32v-32h32V1048.1z M1723.3,1014.1h-32v-32
	h32V1014.1z M1723.3,980.2h-32v-32h32V980.2z M1723.3,946.2h-32v-32.1h32V946.2z M1723.3,912.2h-32v-32h32V912.2z M1723.3,878.2h-32
	v-32h32V878.2z M1723.3,844.3h-32v-32h32V844.3z M1723.3,810.3h-32v-32h32V810.3z M1723.3,776.3h-32v-32h32V776.3z M1723.3,742.4
	h-32v-32h32V742.4z M1723.3,708.4h-32v-32h32V708.4z M1723.3,674.5h-32v-32.1h32V674.5z M1723.3,640.4h-32v-32h32V640.4z
	 M1723.3,606.4h-32v-32h32V606.4z M1723.3,572.5h-32v-32h32V572.5z M1723.3,538.5h-32v-32h32V538.5z M1723.3,504.6h-32v-32h32V504.6
	z M1723.3,470.6h-32v-32h32V470.6z M1723.3,436.7h-32v-32h32V436.7z M1723.3,402.7h-32v-32.1h32V402.7z M1723.3,368.6h-32v-32h32
	V368.6z M1723.3,334.7h-32v-32h32V334.7z M1723.3,300.7h-32v-32h32V300.7z M1723.3,266.8h-32v-32h32V266.8z M1723.3,232.8h-32v-32
	h32V232.8z M1723.3,198.8h-32v-32h32V198.8z M1723.3,164.9h-32v-32h32V164.9z M1723.3,130.9h-32V98.8h32V130.9z M1723.3,96.9h-32
	v-32h32V96.9z M1723.3,62.9h-32v-32h32V62.9z M1723.3,29h-32v-32h32V29z M1757.3,1082.1h-32v-32h32V1082.1z M1757.3,1048.1h-32v-32
	h32V1048.1z M1757.3,1014.1h-32v-32h32V1014.1z M1757.3,980.2h-32v-32h32V980.2z M1757.3,946.2h-32v-32.1h32V946.2z M1757.3,912.2
	h-32v-32h32V912.2z M1757.3,878.2h-32v-32h32V878.2z M1757.3,844.3h-32v-32h32V844.3z M1757.3,810.3h-32v-32h32V810.3z
	 M1757.3,776.3h-32v-32h32V776.3z M1757.3,742.4h-32v-32h32V742.4z M1757.3,708.4h-32v-32h32V708.4z M1757.3,674.5h-32v-32.1h32
	V674.5z M1757.3,640.4h-32v-32h32V640.4z M1757.3,606.4h-32v-32h32V606.4z M1757.3,572.5h-32v-32h32V572.5z M1757.3,538.5h-32v-32
	h32V538.5z M1757.3,504.6h-32v-32h32V504.6z M1757.3,470.6h-32v-32h32V470.6z M1757.3,436.7h-32v-32h32V436.7z M1757.3,402.7h-32
	v-32.1h32V402.7z M1757.3,368.6h-32v-32h32V368.6z M1757.3,334.7h-32v-32h32V334.7z M1757.3,300.7h-32v-32h32V300.7z M1757.3,266.8
	h-32v-32h32V266.8z M1757.3,232.8h-32v-32h32V232.8z M1757.3,198.8h-32v-32h32V198.8z M1757.3,164.9h-32v-32h32V164.9z
	 M1757.3,130.9h-32V98.8h32V130.9z M1757.3,96.9h-32v-32h32V96.9z M1757.3,62.9h-32v-32h32V62.9z M1757.3,29h-32v-32h32V29z
	 M1791.3,1082.1h-32v-32h32V1082.1z M1791.3,1048.1h-32v-32h32V1048.1z M1791.3,1014.1h-32v-32h32V1014.1z M1791.3,980.2h-32v-32h32
	V980.2z M1791.3,946.2h-32v-32.1h32V946.2z M1791.3,912.2h-32v-32h32V912.2z M1791.3,878.2h-32v-32h32V878.2z M1791.3,844.3h-32v-32
	h32V844.3z M1791.3,810.3h-32v-32h32V810.3z M1791.3,776.3h-32v-32h32V776.3z M1791.3,742.4h-32v-32h32V742.4z M1791.3,708.4h-32
	v-32h32V708.4z M1791.3,674.5h-32v-32.1h32V674.5z M1791.3,640.4h-32v-32h32V640.4z M1791.3,606.4h-32v-32h32V606.4z M1791.3,572.5
	h-32v-32h32V572.5z M1791.3,538.5h-32v-32h32V538.5z M1791.3,504.6h-32v-32h32V504.6z M1791.3,470.6h-32v-32h32V470.6z
	 M1791.3,436.7h-32v-32h32V436.7z M1791.3,402.7h-32v-32.1h32V402.7z M1791.3,368.6h-32v-32h32V368.6z M1791.3,334.7h-32v-32h32
	V334.7z M1791.3,300.7h-32v-32h32V300.7z M1791.3,266.8h-32v-32h32V266.8z M1791.3,232.8h-32v-32h32V232.8z M1791.3,198.8h-32v-32
	h32V198.8z M1791.3,164.9h-32v-32h32V164.9z M1791.3,130.9h-32V98.8h32V130.9z M1791.3,96.9h-32v-32h32V96.9z M1791.3,62.9h-32v-32
	h32V62.9z M1791.3,29h-32v-32h32V29z M1825.2,1082.1h-32v-32h32V1082.1z M1825.2,1048.1h-32v-32h32V1048.1z M1825.2,1014.1h-32v-32
	h32V1014.1z M1825.2,980.2h-32v-32h32V980.2z M1825.2,946.2h-32v-32.1h32V946.2z M1825.2,912.2h-32v-32h32V912.2z M1825.2,878.2h-32
	v-32h32V878.2z M1825.2,844.3h-32v-32h32V844.3z M1825.2,810.3h-32v-32h32V810.3z M1825.2,776.3h-32v-32h32V776.3z M1825.2,742.4
	h-32v-32h32V742.4z M1825.2,708.4h-32v-32h32V708.4z M1825.2,674.5h-32v-32.1h32V674.5z M1825.2,640.4h-32v-32h32V640.4z
	 M1825.2,606.4h-32v-32h32V606.4z M1825.2,572.5h-32v-32h32V572.5z M1825.2,538.5h-32v-32h32V538.5z M1825.2,504.6h-32v-32h32V504.6
	z M1825.2,470.6h-32v-32h32V470.6z M1825.2,436.7h-32v-32h32V436.7z M1825.2,402.7h-32v-32.1h32V402.7z M1825.2,368.6h-32v-32h32
	V368.6z M1825.2,334.7h-32v-32h32V334.7z M1825.2,300.7h-32v-32h32V300.7z M1825.2,266.8h-32v-32h32V266.8z M1825.2,232.8h-32v-32
	h32V232.8z M1825.2,198.8h-32v-32h32V198.8z M1825.2,164.9h-32v-32h32V164.9z M1825.2,130.9h-32V98.8h32V130.9z M1825.2,96.9h-32
	v-32h32V96.9z M1825.2,62.9h-32v-32h32V62.9z M1825.2,29h-32v-32h32V29z M1859.2,1082.1h-32v-32h32V1082.1z M1859.2,1048.1h-32v-32
	h32V1048.1z M1859.2,1014.1h-32v-32h32V1014.1z M1859.2,980.2h-32v-32h32V980.2z M1859.2,946.2h-32v-32.1h32V946.2z M1859.2,912.2
	h-32v-32h32V912.2z M1859.2,878.2h-32v-32h32V878.2z M1859.2,844.3h-32v-32h32V844.3z M1859.2,810.3h-32v-32h32V810.3z
	 M1859.2,776.3h-32v-32h32V776.3z M1859.2,742.4h-32v-32h32V742.4z M1859.2,708.4h-32v-32h32V708.4z M1859.2,674.5h-32v-32.1h32
	V674.5z M1859.2,640.4h-32v-32h32V640.4z M1859.2,606.4h-32v-32h32V606.4z M1859.2,572.5h-32v-32h32V572.5z M1859.2,538.5h-32v-32
	h32V538.5z M1859.2,504.6h-32v-32h32V504.6z M1859.2,470.6h-32v-32h32V470.6z M1859.2,436.7h-32v-32h32V436.7z M1859.2,402.7h-32
	v-32.1h32V402.7z M1859.2,368.6h-32v-32h32V368.6z M1859.2,334.7h-32v-32h32V334.7z M1859.2,300.7h-32v-32h32V300.7z M1859.2,266.8
	h-32v-32h32V266.8z M1859.2,232.8h-32v-32h32V232.8z M1859.2,198.8h-32v-32h32V198.8z M1859.2,164.9h-32v-32h32V164.9z
	 M1859.2,130.9h-32V98.8h32V130.9z M1859.2,96.9h-32v-32h32V96.9z M1859.2,62.9h-32v-32h32V62.9z M1859.2,29h-32v-32h32V29z
	 M1893.2,1082.1h-32.1v-32h32.1V1082.1z M1893.2,1048.1h-32.1v-32h32.1V1048.1z M1893.2,1014.1h-32.1v-32h32.1V1014.1z
	 M1893.2,980.2h-32.1v-32h32.1V980.2z M1893.2,946.2h-32.1v-32.1h32.1V946.2z M1893.2,912.2h-32.1v-32h32.1V912.2z M1893.2,878.2
	h-32.1v-32h32.1V878.2z M1893.2,844.3h-32.1v-32h32.1V844.3z M1893.2,810.3h-32.1v-32h32.1V810.3z M1893.2,776.3h-32.1v-32h32.1
	V776.3z M1893.2,742.4h-32.1v-32h32.1V742.4z M1893.2,708.4h-32.1v-32h32.1V708.4z M1893.2,674.5h-32.1v-32.1h32.1V674.5z
	 M1893.2,640.4h-32.1v-32h32.1V640.4z M1893.2,606.4h-32.1v-32h32.1V606.4z M1893.2,572.5h-32.1v-32h32.1V572.5z M1893.2,538.5
	h-32.1v-32h32.1V538.5z M1893.2,504.6h-32.1v-32h32.1V504.6z M1893.2,470.6h-32.1v-32h32.1V470.6z M1893.2,436.7h-32.1v-32h32.1
	V436.7z M1893.2,402.7h-32.1v-32.1h32.1V402.7z M1893.2,368.6h-32.1v-32h32.1V368.6z M1893.2,334.7h-32.1v-32h32.1V334.7z
	 M1893.2,300.7h-32.1v-32h32.1V300.7z M1893.2,266.8h-32.1v-32h32.1V266.8z M1893.2,232.8h-32.1v-32h32.1V232.8z M1893.2,198.8
	h-32.1v-32h32.1V198.8z M1893.2,164.9h-32.1v-32h32.1V164.9z M1893.2,130.9h-32.1V98.8h32.1V130.9z M1893.2,96.9h-32.1v-32h32.1
	V96.9z M1893.2,62.9h-32.1v-32h32.1V62.9z M1893.2,29h-32.1v-32h32.1V29z M1927.2,1082.1h-32v-32h32V1082.1z M1927.2,1048.1h-32v-32
	h32V1048.1z M1927.2,1014.1h-32v-32h32V1014.1z M1927.2,980.2h-32v-32h32V980.2z M1927.2,946.2h-32v-32.1h32V946.2z M1927.2,912.2
	h-32v-32h32V912.2z M1927.2,878.2h-32v-32h32V878.2z M1927.2,844.3h-32v-32h32V844.3z M1927.2,810.3h-32v-32h32V810.3z
	 M1927.2,776.3h-32v-32h32V776.3z M1927.2,742.4h-32v-32h32V742.4z M1927.2,708.4h-32v-32h32V708.4z M1927.2,674.5h-32v-32.1h32
	V674.5z M1927.2,640.4h-32v-32h32V640.4z M1927.2,606.4h-32v-32h32V606.4z M1927.2,572.5h-32v-32h32V572.5z M1927.2,538.5h-32v-32
	h32V538.5z M1927.2,504.6h-32v-32h32V504.6z M1927.2,470.6h-32v-32h32V470.6z M1927.2,436.7h-32v-32h32V436.7z M1927.2,402.7h-32
	v-32.1h32V402.7z M1927.2,368.6h-32v-32h32V368.6z M1927.2,334.7h-32v-32h32V334.7z M1927.2,300.7h-32v-32h32V300.7z M1927.2,266.8
	h-32v-32h32V266.8z M1927.2,232.8h-32v-32h32V232.8z M1927.2,198.8h-32v-32h32V198.8z M1927.2,164.9h-32v-32h32V164.9z
	 M1927.2,130.9h-32V98.8h32V130.9z M1927.2,96.9h-32v-32h32V96.9z M1927.2,62.9h-32v-32h32V62.9z M1927.2,29h-32v-32h32V29z
	 M1961.1,1082.1h-32v-32h32V1082.1z M1961.1,1048.1h-32v-32h32V1048.1z M1961.1,1014.1h-32v-32h32V1014.1z M1961.1,980.2h-32v-32h32
	V980.2z M1961.1,946.2h-32v-32.1h32V946.2z M1961.1,912.2h-32v-32h32V912.2z M1961.1,878.2h-32v-32h32V878.2z M1961.1,844.3h-32v-32
	h32V844.3z M1961.1,810.3h-32v-32h32V810.3z M1961.1,776.3h-32v-32h32V776.3z M1961.1,742.4h-32v-32h32V742.4z M1961.1,708.4h-32
	v-32h32V708.4z M1961.1,674.5h-32v-32.1h32V674.5z M1961.1,640.4h-32v-32h32V640.4z M1961.1,606.4h-32v-32h32V606.4z M1961.1,572.5
	h-32v-32h32V572.5z M1961.1,538.5h-32v-32h32V538.5z M1961.1,504.6h-32v-32h32V504.6z M1961.1,470.6h-32v-32h32V470.6z
	 M1961.1,436.7h-32v-32h32V436.7z M1961.1,402.7h-32v-32.1h32V402.7z M1961.1,368.6h-32v-32h32V368.6z M1961.1,334.7h-32v-32h32
	V334.7z M1961.1,300.7h-32v-32h32V300.7z M1961.1,266.8h-32v-32h32V266.8z M1961.1,232.8h-32v-32h32V232.8z M1961.1,198.8h-32v-32
	h32V198.8z M1961.1,164.9h-32v-32h32V164.9z M1961.1,130.9h-32V98.8h32V130.9z M1961.1,96.9h-32v-32h32V96.9z M1961.1,62.9h-32v-32
	h32V62.9z M1961.1,29h-32v-32h32V29z M1995.1,1082.1h-32v-32h32V1082.1z M1995.1,1048.1h-32v-32h32V1048.1z M1995.1,1014.1h-32v-32
	h32V1014.1z M1995.1,980.2h-32v-32h32V980.2z M1995.1,946.2h-32v-32.1h32V946.2z M1995.1,912.2h-32v-32h32V912.2z M1995.1,878.2h-32
	v-32h32V878.2z M1995.1,844.3h-32v-32h32V844.3z M1995.1,810.3h-32v-32h32V810.3z M1995.1,776.3h-32v-32h32V776.3z M1995.1,742.4
	h-32v-32h32V742.4z M1995.1,708.4h-32v-32h32V708.4z M1995.1,674.5h-32v-32.1h32V674.5z M1995.1,640.4h-32v-32h32V640.4z
	 M1995.1,606.4h-32v-32h32V606.4z M1995.1,572.5h-32v-32h32V572.5z M1995.1,538.5h-32v-32h32V538.5z M1995.1,504.6h-32v-32h32V504.6
	z M1995.1,470.6h-32v-32h32V470.6z M1995.1,436.7h-32v-32h32V436.7z M1995.1,402.7h-32v-32.1h32V402.7z M1995.1,368.6h-32v-32h32
	V368.6z M1995.1,334.7h-32v-32h32V334.7z M1995.1,300.7h-32v-32h32V300.7z M1995.1,266.8h-32v-32h32V266.8z M1995.1,232.8h-32v-32
	h32V232.8z M1995.1,198.8h-32v-32h32V198.8z M1995.1,164.9h-32v-32h32V164.9z M1995.1,130.9h-32V98.8h32V130.9z M1995.1,96.9h-32
	v-32h32V96.9z M1995.1,62.9h-32v-32h32V62.9z M1995.1,29h-32v-32h32V29z M2029.1,1082.1h-32v-32h32V1082.1z M2029.1,1048.1h-32v-32
	h32V1048.1z M2029.1,1014.1h-32v-32h32V1014.1z M2029.1,980.2h-32v-32h32V980.2z M2029.1,946.2h-32v-32.1h32V946.2z M2029.1,912.2
	h-32v-32h32V912.2z M2029.1,878.2h-32v-32h32V878.2z M2029.1,844.3h-32v-32h32V844.3z M2029.1,810.3h-32v-32h32V810.3z
	 M2029.1,776.3h-32v-32h32V776.3z M2029.1,742.4h-32v-32h32V742.4z M2029.1,708.4h-32v-32h32V708.4z M2029.1,674.5h-32v-32.1h32
	V674.5z M2029.1,640.4h-32v-32h32V640.4z M2029.1,606.4h-32v-32h32V606.4z M2029.1,572.5h-32v-32h32V572.5z M2029.1,538.5h-32v-32
	h32V538.5z M2029.1,504.6h-32v-32h32V504.6z M2029.1,470.6h-32v-32h32V470.6z M2029.1,436.7h-32v-32h32V436.7z M2029.1,402.7h-32
	v-32.1h32V402.7z M2029.1,368.6h-32v-32h32V368.6z M2029.1,334.7h-32v-32h32V334.7z M2029.1,300.7h-32v-32h32V300.7z M2029.1,266.8
	h-32v-32h32V266.8z M2029.1,232.8h-32v-32h32V232.8z M2029.1,198.8h-32v-32h32V198.8z M2029.1,164.9h-32v-32h32V164.9z
	 M2029.1,130.9h-32V98.8h32V130.9z M2029.1,96.9h-32v-32h32V96.9z M2029.1,62.9h-32v-32h32V62.9z M2029.1,29h-32v-32h32V29z"/>
</svg>
