<svg id="Layer_1" data-name="Layer 1" xmlns="http://www.w3.org/2000/svg" viewBox="0 0 200 200"><defs><style>.cls-1{fill:#fbcbcb;}.cls-2{fill:#fff;}</style></defs><circle class="cls-1" cx="100" cy="100" r="100"/><path class="cls-2" d="M141.77,131.07q-9.24,0-12.75-30.34c-6,5.43-12,12.75-18.18,21.84-2.93,4.54-5.71,6.74-8.35,6.74s-5-1.76-6.74-5.28c-3.52-6.44-5.57-15.82-6.45-28-13.34,9.09-22,20.23-25.79,33.42-1.18,4.1-3.37,6.15-6.45,6.15-4.54,0-6.74-4.1-6.74-12.31,0-4.39,1-11.72,3.37-22.27,2.2-10.26,3.37-16.86,3.37-20.08a19.33,19.33,0,0,0-2.2-8.65,7.83,7.83,0,0,1,2.93-5.71,7.67,7.67,0,0,1,5.28-2.2c4.25,0,6.45,4.69,6.45,13.77,0,3.81-1.47,11.87-4.25,24.48C82.56,86.37,93,78.16,96.78,78.16A4.66,4.66,0,0,1,101.46,81c.45,1.17.74,3.81.74,7.62,0,11.14.73,19.05,2.34,23.45,13.78-18.47,24.33-27.85,31.81-27.85,3.22,0,4.83,1.76,5,5.28.58,15,2.64,25.21,6.15,30.48,1.47,2.35,2.2,3.81,2.2,4.25C149.68,128.87,147,131.07,141.77,131.07Z"/></svg>