<?xml version="1.0" encoding="utf-8"?>
<!-- Generator: Adobe Illustrator 23.0.2, SVG Export Plug-In . SVG Version: 6.00 Build 0)  -->
<svg version="1.1" id="Layer_1" xmlns="http://www.w3.org/2000/svg" xmlns:xlink="http://www.w3.org/1999/xlink" x="0px" y="0px"
	 viewBox="0 0 60 60" style="enable-background:new 0 0 60 60;" xml:space="preserve">
<style type="text/css">
	.st0{fill:#F9D6D4;}
	.st1{fill:#005A7E;}
</style>
<g>
	<circle class="st0" cx="29.9" cy="30.2" r="29.2"/>
	<g>
		<path class="st1" d="M43.4,32.7c-0.2-6.1,0.8-10.4,3.2-15.9c0.1-0.3-0.1-0.6-0.4-0.6c-6.3,0.3-9.7,4.2-14.1,4.2
			c-3.7,0-6.2-3.2-9.4-4.5c-3.1-1.2-7-0.1-9,2.6c-1.1,1.4-1.7,3.2-1.7,5v0.1c0,3.2,3.4,6.4,6.8,5c0.2-0.1,0.4,0,0.4,0.2
			c1,5.7-2.7,13-5,16.6c-0.2,0.4,0.1,0.9,0.5,0.8c6.1-0.5,9.4-3.7,13.7-3.7c4.6,0,7.6,2.9,11.1,2.9c3.3,0,5.6-0.4,6.9-1.8
			c0.4-0.4,0.4-1.1,0-1.5C44.4,39.7,43.5,36.3,43.4,32.7"/>
	</g>
	<circle class="st1" cx="49.4" cy="22.3" r="1.7"/>
	<circle class="st1" cx="48.2" cy="27.8" r="1.7"/>
</g>
</svg>
